<svg xmlns="http://www.w3.org/2000/svg" viewBox="0 0 500 500"><g id="freepik--background-complete--inject-63"><rect y="382.4" width="500" height="0.25" style="fill:#ebebeb"></rect><rect x="416.78" y="398.49" width="33.12" height="0.25" style="fill:#ebebeb"></rect><rect x="316.95" y="395.11" width="57.98" height="0.25" style="fill:#ebebeb"></rect><rect x="361.67" y="389.21" width="54.11" height="0.25" style="fill:#ebebeb"></rect><rect x="52.46" y="390.89" width="14.91" height="0.25" style="fill:#ebebeb"></rect><rect x="76.27" y="390.89" width="64.4" height="0.25" style="fill:#ebebeb"></rect><rect x="182" y="395.11" width="43.15" height="0.25" style="fill:#ebebeb"></rect><path d="M237,337.8H43.91a5.71,5.71,0,0,1-5.7-5.71V60.66A5.71,5.71,0,0,1,43.91,55H237a5.71,5.71,0,0,1,5.71,5.71V332.09A5.71,5.71,0,0,1,237,337.8ZM43.91,55.2a5.46,5.46,0,0,0-5.45,5.46V332.09a5.46,5.46,0,0,0,5.45,5.46H237a5.47,5.47,0,0,0,5.46-5.46V60.66A5.47,5.47,0,0,0,237,55.2Z" style="fill:#ebebeb"></path><path d="M453.31,337.8H260.21a5.72,5.72,0,0,1-5.71-5.71V60.66A5.72,5.72,0,0,1,260.21,55h193.1A5.71,5.71,0,0,1,459,60.66V332.09A5.71,5.71,0,0,1,453.31,337.8ZM260.21,55.2a5.47,5.47,0,0,0-5.46,5.46V332.09a5.47,5.47,0,0,0,5.46,5.46h193.1a5.47,5.47,0,0,0,5.46-5.46V60.66a5.47,5.47,0,0,0-5.46-5.46Z" style="fill:#ebebeb"></path><rect x="146.26" y="91.18" width="52.77" height="85.77" transform="translate(345.3 268.14) rotate(180)" style="fill:#f0f0f0"></rect><rect x="135.59" y="91.18" width="57.19" height="85.77" transform="translate(328.37 268.14) rotate(180)" style="fill:#f5f5f5"></rect><rect x="126.09" y="110.26" width="76.19" height="47.61" transform="translate(298.25 -30.11) rotate(90)" style="fill:#fff"></rect><rect x="138.5" y="121.8" width="51.36" height="24.53" transform="translate(298.25 -30.11) rotate(90)" style="fill:#f5f5f5"></rect><rect x="66.61" y="64.44" width="52.77" height="85.77" transform="translate(186 214.65) rotate(180)" style="fill:#f0f0f0"></rect><rect x="55.94" y="64.44" width="57.19" height="85.77" transform="translate(169.06 214.65) rotate(180)" style="fill:#f5f5f5"></rect><rect x="46.44" y="83.52" width="76.19" height="47.61" transform="translate(191.86 22.8) rotate(90)" style="fill:#fff"></rect><rect x="58.85" y="95.06" width="51.36" height="24.53" rx="12.26" transform="translate(191.86 22.8) rotate(90)" style="fill:#f5f5f5"></rect><circle cx="120.04" cy="329.37" r="53.03" transform="translate(-72.46 36.39) rotate(-13.28)" style="fill:#e6e6e6"></circle><path d="M94.08,297.77c3.15-3.27,4.42-7.18,2.81-8.72s-5.46-.15-8.61,3.13-4.42,7.18-2.82,8.72S90.92,301,94.08,297.77Z" style="fill:#e6e6e6;opacity:0.7000000000000001;mix-blend-mode:multiply"></path><ellipse cx="115.34" cy="283.87" rx="8.23" ry="4.03" transform="translate(-51.5 26.87) rotate(-10.88)" style="fill:#e6e6e6;opacity:0.7000000000000001;mix-blend-mode:multiply"></ellipse><path d="M111.58,306.33c4.29-1.5,7-4.86,6.09-7.49s-5.15-3.55-9.44-2-7,4.86-6.1,7.49S107.29,307.84,111.58,306.33Z" style="fill:#e6e6e6;opacity:0.7000000000000001;mix-blend-mode:multiply"></path><rect x="158.9" y="233.77" width="50.12" height="148.62" transform="translate(367.92 616.17) rotate(180)" style="fill:#e6e6e6"></rect><polygon points="168.42 382.4 158.9 382.4 158.9 363.63 178.4 363.63 168.42 382.4" style="fill:#f0f0f0"></polygon><rect x="430.77" y="233.77" width="50.12" height="148.62" transform="translate(911.65 616.17) rotate(180)" style="fill:#e6e6e6"></rect><rect x="158.9" y="233.77" width="280.17" height="140.32" transform="translate(597.98 607.86) rotate(180)" style="fill:#f0f0f0"></rect><polygon points="429.56 382.4 439.08 382.4 439.08 363.63 419.58 363.63 429.56 382.4" style="fill:#f0f0f0"></polygon><path d="M431.21,250.4v49H166.76v-49H431.21m.48-.47H166.29v50h265.4v-50Z" style="fill:#fdfeff"></path><path d="M431.21,308.45v49H166.76v-49H431.21m.48-.48H166.29v50h265.4V308Z" style="fill:#fdfeff"></path><path d="M278.63,257.52h40.72a7.59,7.59,0,0,0,7.6-7.59H271A7.59,7.59,0,0,0,278.63,257.52Z" style="fill:#fdfeff"></path><path d="M278.63,315.57h40.72A7.6,7.6,0,0,0,327,308H271A7.6,7.6,0,0,0,278.63,315.57Z" style="fill:#fdfeff"></path><path d="M346.7,223.61c-1.62-30.87-3.34-61.57.19-77.06l5.76-3s-1.26,2.89-1.93,50.19-1.48,22.85-.78,29.88Z" style="fill:#e6e6e6"></path><path d="M359.64,109.83C373.18,92.05,403.36,74.18,435.5,66c12.61-3.19-8.77,56.4-54.16,62.07C359.17,130.88,350.56,161,346,175.48,346.39,147.35,346.1,127.61,359.64,109.83Z" style="fill:#e6e6e6"></path><path d="M338.88,135.41c-10.85-14.24-35-28.56-60.76-35.08-10.11-2.56,7,45.18,43.38,49.72,17.76,2.22,24.65,26.34,28.3,37.94C349.5,165.46,349.73,149.65,338.88,135.41Z" style="fill:#e6e6e6"></path><path d="M348.82,233.77h0c-11.4,0-20.82-.61-21.47-12l-1.9-14.94h46.73l-1.9,14.94C369.63,233.16,360.21,233.77,348.82,233.77Z" style="fill:#f0f0f0"></path><polygon points="375.2 213.01 322.43 213.01 320.92 194.01 376.72 194.01 375.2 213.01" style="fill:#f0f0f0"></polygon></g><g id="freepik--Shadow--inject-63"><ellipse id="freepik--path--inject-63" cx="250" cy="416.24" rx="193.89" ry="11.32" style="fill:#f5f5f5"></ellipse></g><g id="freepik--Wool--inject-63"><circle cx="259.45" cy="156.85" r="23.82" transform="translate(-34.92 229.4) rotate(-45)" style="fill:#DF8FBC"></circle><path d="M275.6,140.41a8.87,8.87,0,0,1-1.28-.09l.13-1c5.49.75,14.05-4,18.67-10.4.59-.81,1.14-1.63,1.7-2.45,4-5.93,8.19-12.06,22-12.06,15.24,0,26.63-8.9,28.68-15l.95.31c-2.15,6.43-13.93,15.73-29.63,15.73-13.25,0-17.08,5.64-21.14,11.62-.56.83-1.13,1.66-1.72,2.47C289.47,135.7,281.4,140.41,275.6,140.41Z" style="fill:#DF8FBC"></path><path d="M283.41,157.81a.49.49,0,0,0,.16-.69.5.5,0,0,0-.69-.15,49.12,49.12,0,0,1-4.71,2.62c0-.26,0-.53-.07-.8,1.78-.86,3.55-1.8,5.28-2.82a.5.5,0,0,0,.17-.68.49.49,0,0,0-.68-.18c-1.6.95-3.23,1.8-4.87,2.6a46.88,46.88,0,0,0-.89-5.16,59.28,59.28,0,0,0,3.67-6.87.49.49,0,0,0-.25-.66.5.5,0,0,0-.66.25,55.61,55.61,0,0,1-3.1,5.91c-.19-.74-.41-1.48-.65-2.23a50.93,50.93,0,0,0,3-5.95.51.51,0,0,0-.27-.66.5.5,0,0,0-.65.27,49.72,49.72,0,0,1-2.5,5.07,44.39,44.39,0,0,0-3.65-7.9c1.55-.67,2.46-1,2.51-1a.49.49,0,0,0,.29-.64.5.5,0,0,0-.64-.3s-1,.39-2.69,1.11q-.31-.53-.66-1c1-.5,1.57-.76,1.6-.78a.49.49,0,0,0,.25-.66.5.5,0,0,0-.66-.25s-.67.31-1.76.86c-.69-1-1.43-2-2.23-2.94a.49.49,0,0,0-.7-.06.5.5,0,0,0-.18.36c-.22-.28-.45-.55-.68-.82a.49.49,0,0,0-.7-.06.51.51,0,0,0-.06.71,39.14,39.14,0,0,1,2.84,3.7l-.49.26a43.53,43.53,0,0,0-4-5.21.5.5,0,0,0-.71,0,.39.39,0,0,0-.13.21,2.9,2.9,0,0,1-.19-.29.5.5,0,0,0-.7-.14.49.49,0,0,0-.21.31l-.14-.26a.51.51,0,0,0-.68-.2.5.5,0,0,0-.19.68c1.29,2.33,2.47,4.61,3.54,6.87l-.27.16a52.64,52.64,0,0,0-4-7.63.5.5,0,1,0-.84.54,50.86,50.86,0,0,1,3.95,7.61l-.67.4a72.83,72.83,0,0,0-4.28-8.51.49.49,0,0,0-.68-.18.51.51,0,0,0-.18.69,70.08,70.08,0,0,1,4.28,8.53c-.93.58-1.91,1.2-2.92,1.87a62,62,0,0,0-5.52-10.15.49.49,0,0,0-.69-.13.5.5,0,0,0-.14.69,61.89,61.89,0,0,1,5.51,10.15c-.87.58-1.75,1.18-2.66,1.83a106.37,106.37,0,0,0-6.19-11,.5.5,0,0,0-.84.55,107.12,107.12,0,0,1,6.21,11l-1.46,1.06c-1.62-3.92-3.32-8-5-12a.5.5,0,0,0-.66-.26.5.5,0,0,0-.26.65c1.74,4.08,3.47,8.19,5.13,12.18l-.92.69c-1.61-4-3.17-8.17-4.57-12.45a.5.5,0,0,0-.64-.31.48.48,0,0,0-.34.44.57.57,0,0,0-.26,0,.5.5,0,0,0-.39.59,99.93,99.93,0,0,0,3.82,13.64c-1.77,1.43-3.56,3-5.34,4.61a47.22,47.22,0,0,1,1-17.07.5.5,0,0,0-1-.23,48.44,48.44,0,0,0-.87,18.15l-.66.61a47.13,47.13,0,0,1,.5-17,.49.49,0,0,0-.38-.59.5.5,0,0,0-.6.39,47.91,47.91,0,0,0-.39,18.05l-.49.48a42.54,42.54,0,0,1,.42-16.43.52.52,0,0,0-.39-.6.51.51,0,0,0-.59.39,43.44,43.44,0,0,0-.31,17.52l-.49.5a33.19,33.19,0,0,1,.2-15.59.5.5,0,1,0-1-.27,34.37,34.37,0,0,0-.06,16.72l-.64.69a25.67,25.67,0,0,1-.57-12.69.51.51,0,0,0-.37-.61.5.5,0,0,0-.6.37,27.07,27.07,0,0,0,.75,13.79c-.38.42-.76.84-1.13,1.27a.51.51,0,0,0,.05.71.53.53,0,0,0,.1.06.51.51,0,0,0,.11.61.5.5,0,0,0,.33.12.48.48,0,0,0,.37-.17l.74-.82q.21.61.45,1.23c-.36-.05-.74-.09-1.09-.15a.5.5,0,0,0-.16,1,.66.66,0,0,0-.09.19.5.5,0,0,0,.34.57.2.2,0,0,0,0,.08.5.5,0,0,0,.38.6l1.79.38c.07.16.15.32.23.48l-.95-.18a.5.5,0,0,0-.6.38.51.51,0,0,0,.39.6c.59.12,1.15.21,1.73.31l.14.28-.79-.15a.5.5,0,1,0-.2,1c.55.12,1.08.2,1.63.3l.27.47-.5-.18a.5.5,0,0,0-.65.29.5.5,0,0,0,.29.64c.55.21,1.12.4,1.7.58.06.08.11.16.16.24a.5.5,0,0,0-.61.27.5.5,0,0,0,.26.66c.42.19.89.36,1.38.53.57.78,1.16,1.53,1.8,2.25,0,0,0,0,0,.05l.05,0,0,0a.46.46,0,0,0,.23.06h0a.39.39,0,0,0,.15,0l.71-.22c.47.59,1,1.17,1.46,1.73a.51.51,0,0,0,.37.17.55.55,0,0,0,.34-.13.5.5,0,0,0,0-.71c-.4-.45-.79-.93-1.18-1.4l.32-.11c1,1.39,2.14,2.76,3.36,4.11a.5.5,0,0,0,.37.17.51.51,0,0,0,.33-.13.59.59,0,0,0,.13-.19h0a.48.48,0,0,0,.18-.39c.11.14.21.29.31.43a.51.51,0,0,0,.41.2.46.46,0,0,0,.29-.1.5.5,0,0,0,.11-.7,44.57,44.57,0,0,1-2.49-3.76c.87.06,1.76.1,2.69.1A44.52,44.52,0,0,0,261,175c2.17,3.43,3.67,5.4,3.71,5.46a.5.5,0,0,0,.4.19.47.47,0,0,0,.3-.1.5.5,0,0,0,.19-.4.29.29,0,0,0,.1,0h0a.57.57,0,0,0,.18,0l0,0h0l.05,0,.07-.06.06-.08,0-.09s0-.06,0-.09a0,0,0,0,1,0,0h0l0,.06.1.06.05,0a.58.58,0,0,0,.18,0h.1l.05,0,.1,0,.07-.06.07-.06a.35.35,0,0,0,.05-.08.36.36,0,0,0,0-.09.31.31,0,0,0,0-.1.14.14,0,0,0,0-.06c0-.07-.08-2.25-.46-5.74.48-.14.95-.29,1.42-.45a46.71,46.71,0,0,1-.53,5.62.5.5,0,0,0,.41.58H268a.49.49,0,0,0,.49-.41.46.46,0,0,0,.19.08h.1a.51.51,0,0,0,.47-.34l.08,0h.11a.51.51,0,0,0,.49-.39c.49-2.2.86-4.3,1.13-6.34l.48-.21c-.23,1.76-.54,3.58-.93,5.48a.5.5,0,0,0,.39.59h.1a.5.5,0,0,0,.49-.4c.44-2.14.78-4.19,1-6.17l.35-.16c-.26,1.71-.55,3.45-.93,5.25a.5.5,0,0,0,.39.59l.1,0a.51.51,0,0,0,.49-.4c.43-2.06.76-4.06,1-6l1-.52a33.77,33.77,0,0,1-1.44,5.12.49.49,0,0,0,.29.64.39.39,0,0,0,.18,0,.52.52,0,0,0,.47-.33,35.46,35.46,0,0,0,1.64-6.12c.18-.11.36-.2.53-.31a21.49,21.49,0,0,1-1.34,4.52.51.51,0,0,0,.45.71.5.5,0,0,0,.46-.3,23.28,23.28,0,0,0,1.57-5.65,44.24,44.24,0,0,0,4.12-3,.49.49,0,0,0,.06-.7.49.49,0,0,0-.36-.18c.27-.23.56-.44.83-.68a.49.49,0,0,0,.05-.7.51.51,0,0,0-.71-.06,37.9,37.9,0,0,1-3.7,2.84l.06-.68a42.79,42.79,0,0,0,4.89-3.85.49.49,0,0,0,0-.7.42.42,0,0,0-.22-.13l.3-.2a.5.5,0,0,0,.14-.69.54.54,0,0,0-.31-.21l.26-.14a.5.5,0,0,0-.49-.88c-1.54.86-3.06,1.66-4.57,2.43a2.35,2.35,0,0,0,0-.27A50,50,0,0,0,283.41,157.81Zm-6.2,2.23-.42.19c0-.27,0-.54,0-.81l.41-.19C277.18,159.5,277.2,159.77,277.21,160Zm.09,2.49v.33l-.49.27c0-.13,0-.25,0-.38Zm-8.24,6.32c0-.37,0-.75-.06-1.13l.17-.06c0,.39,0,.76,0,1.15Zm.11.94c0,.27,0,.53,0,.79l-.07,0v-.77Zm-5.41,3.66-.1-.25.87-.2.06.24C264.31,173.31,264,173.39,263.76,173.45Zm1.08.74c.63,2.46,1,4.19,1.16,4.93l-1.87-4.75Zm-10.08-3.05,1.07-.76,1.71-.13-1.53.88Zm17-13c-.17.21-.35.42-.53.62-.08-.81-.18-1.61-.31-2.4.18-.21.35-.43.52-.65C271.6,156.54,271.7,157.35,271.79,158.18Zm.52-3.51c.27-.35.53-.71.79-1.08.14.83.25,1.66.35,2.51-.26.34-.51.67-.77,1C272.58,156.27,272.45,155.46,272.31,154.67Zm-24,19.2.2,0-.14.07Zm-.62-1.1c-.2-.35-.4-.72-.59-1.09l.37,0c.18.38.35.75.54,1.11Zm-1.13-2.15c-.06-.14-.13-.28-.2-.42l.44,0c.07.14.13.28.19.42Zm-.68-1.46c-.07-.16-.15-.32-.22-.49l.52.06c.06.16.12.32.19.48Zm-.53-2.66,0,.06-.58,0v0h.57Zm-.16,1.05h.54l0,.1-.56,0Zm17.22-1.61c.09.27.18.54.26.8-.5.12-1,.22-1.5.32l-.25-.62.3-.26Zm-1.83,2.35-.28.19-.11-.21.36-.06Zm-.71-1,.24-.19a.58.58,0,0,0,.05.14Zm-.71,1.14c.09.2.19.38.28.57l-.85.12-.31-.56Zm6.31-2.59c.35-.29.7-.58,1-.89l1.23-.35.06.72c-.76.25-1.53.49-2.3.7Zm3.11-2.78c.1-.09.19-.19.28-.28,0,.15,0,.29,0,.44l-.29.08Zm.13,1.27.28-.09,0,.67-.25.08C268.79,164.77,268.78,164.55,268.75,164.33Zm1.25-.4.56-.18v.61l-.52.2C270,164.35,270,164.14,270,163.93Zm-.09-1c0-.25,0-.49-.07-.74l.67-.22c0,.24,0,.49,0,.74Zm-3.84,1.13-.85.21c0-.2-.07-.4-.11-.6l2.05-.6C266.8,163.4,266.44,163.73,266.07,164.05Zm-2.51,2.08c0-.13-.08-.27-.13-.41l.92-.21Zm-5,1-.61.47-.15,0-.41-.76,1-.15Zm-1.83.62a52.56,52.56,0,0,1-9.81,0c0-.06,0-.12-.07-.19h.48a69.59,69.59,0,0,0,9-.61Zm-9.39,1.09c1.47.11,2.9.18,4.3.18,1.61,0,3.18-.08,4.72-.22l-.86.62a56.19,56.19,0,0,1-8-.1Zm10.18.34,0,.08-.18,0Zm5.52-1.37c.06.19.11.37.17.55l-1.29.26C262.29,168.34,262.66,168.07,263,167.79Zm1-.3.75-.2c0,.22.07.44.11.65l-.68.17Zm1.72-.46c.75-.21,1.49-.43,2.23-.67l0,.65c-.7.24-1.42.46-2.15.67C265.78,167.47,265.75,167.25,265.71,167Zm3.2-1,.2-.07,0,.65-.19.07C268.94,166.46,268.92,166.25,268.91,166Zm1.18-.42.48-.18c0,.21,0,.44,0,.65l-.42.16Zm1.48-.56.51-.2c0,.2,0,.4,0,.6l-.49.21Zm0-1.08v-.56l.53-.19v.54Zm0-1.62c0-.25,0-.5-.05-.75l.55-.21c0,.26,0,.52,0,.78Zm-.12-1.8c0-.13,0-.26,0-.39l.52-.59.06.77Zm-1.05-.73-.7.74c-.09-.76-.18-1.53-.3-2.29.24-.27.48-.54.71-.82C270.19,158.23,270.29,159,270.37,159.82Zm-1.58,1.66h0l-.34.11c-.09-.65-.19-1.3-.3-2l.36-.39C268.6,160,268.71,160.74,268.79,161.48Zm-1.32.45c-.73.23-1.47.44-2.2.65.68-.66,1.35-1.34,2-2C267.36,161,267.41,161.47,267.47,161.93Zm-3.33,2c0,.2.08.4.11.59l-1.12.26a1,1,0,0,1-.05-.16l.62-.56Zm-3.33,1.34-.31.06c-.06-.16-.12-.33-.19-.49.44-.09.89-.18,1.33-.29Zm-1.31.23-.58.1-.21-.43.61-.12Zm-1.61.28-1,.13-.2-.38c.34-.05.67-.12,1-.18C257.76,165.49,257.83,165.62,257.89,165.77Zm-2.06.27a68.11,68.11,0,0,1-9.36.54l0-.09a70.89,70.89,0,0,0,9.2-.81Zm-9.74-.55a52.4,52.4,0,0,1-2-7.92c1.91-1.7,3.84-3.29,5.76-4.76a122.67,122.67,0,0,0,5.28,11.94A70.33,70.33,0,0,1,246.09,165.49Zm-1,0h-.6a47.2,47.2,0,0,1-1.82-6.55l.62-.59A52.86,52.86,0,0,0,245.05,165.5Zm-1.68,0H243a36.91,36.91,0,0,1-1.64-5.24l.46-.46A48.7,48.7,0,0,0,243.37,165.47Zm1.19,3.08c.07.15.13.32.2.47l-.22,0-.26-.49Zm.68,1.53.18.37-.11,0c-.07-.12-.14-.24-.2-.37Zm4,2.89c-.2-.38-.39-.76-.58-1.16,1,.1,2,.17,3,.22l-1.65,1Zm-1.07-2.18-.21-.46c1.48.11,2.94.18,4.33.18.57,0,1.11,0,1.66,0l-1,.65C251.44,171.08,249.83,171,248.18,170.79Zm10.29.07.09.14-.37,0Zm.85-.53c.2-.12.4-.24.59-.37h0l.44.86-.74.08Zm1.67-.54.22,0c.12.31.24.62.36.91l-.12,0Zm.94,1.76c.05.12.09.23.13.35a3.59,3.59,0,0,0-.17-.34Zm1.36.72c-.11-.29-.23-.58-.35-.88l1.09-.2c.08.28.16.58.24.85Zm-.71-1.78-.37-.93c.43-.08.86-.16,1.28-.26.1.34.19.67.28,1C263.38,170.37,263,170.43,262.58,170.49Zm1.88-1.42.54-.14c.05.35.11.7.15,1l-.4.1C264.66,169.74,264.56,169.41,264.46,169.07Zm1.51-.39c.7-.19,1.38-.4,2-.62,0,.36.05.74.06,1.1-.65.21-1.29.41-1.95.58C266.08,169.4,266,169,266,168.68Zm4.2-1.38.32-.13c0,.38,0,.76-.05,1.14l-.27.11C270.16,168,270.17,167.68,270.17,167.3Zm1.35-.53.51-.22c0,.37,0,.75-.07,1.12-.17.08-.33.17-.5.24C271.49,167.53,271.5,167.15,271.52,166.77Zm1.53-.66.51-.23c0,.36-.05.71-.08,1.07l-.49.23Zm0-1.11c0-.19,0-.38,0-.57.19-.08.38-.15.57-.24l0,.55Zm0-1.66v-.48l.63-.24c0,.15,0,.29,0,.45Zm0-1.54c0-.27,0-.53,0-.79l.71-.28c0,.27,0,.54,0,.8ZM273,160c0-.49-.08-1-.13-1.47l.76-.93c0,.69.07,1.41.1,2.12Zm1.46-3.48.88-1.22c.18,1.19.31,2.37.4,3.54l-1.08.47C274.59,158.32,274.52,157.38,274.43,156.47Zm-.16-1.48c-.11-.84-.25-1.66-.41-2.48l.7-1c.19.78.36,1.57.51,2.36Zm-.69-3.83a38.78,38.78,0,0,0-3.89-10.31l.55-.26a41.78,41.78,0,0,1,4,9.58Zm-.71,1c-.27.38-.54.76-.82,1.13a50.33,50.33,0,0,0-4-11.7l.76-.37A37.72,37.72,0,0,1,272.87,152.2Zm-5.25-11.47-.46-.89.62-.34.55.89Zm-.9.45-.4.2c-.12-.28-.24-.57-.37-.85l.34-.19C266.43,140.61,266.58,140.89,266.72,141.18Zm.44.89a49,49,0,0,1,4.08,12.35l-.52.68a59.77,59.77,0,0,0-4-12.81Zm2.72,14.06-.72.87A76,76,0,0,0,265.44,143l.39-.2A57.91,57.91,0,0,1,269.88,156.13ZM268.32,158l-.39.43a80.12,80.12,0,0,0-4.05-14.6l.67-.37A74.81,74.81,0,0,1,268.32,158Zm-1.24,1.36c-.78.83-1.57,1.63-2.36,2.4A98.21,98.21,0,0,0,260,146c1-.6,2-1.16,3-1.69A78.94,78.94,0,0,1,267.08,159.32Zm-3.22,3.21-.62.59-.61.15a145.38,145.38,0,0,0-6.05-15.16c.88-.56,1.75-1.11,2.6-1.62A97.44,97.44,0,0,1,263.86,162.53Zm-2.2,1-1.73.37c-1.71-4.24-3.68-9.07-5.79-14.16l1.59-1.07A143.63,143.63,0,0,1,261.66,163.52Zm-2.72.58-.67.14c-1.88-3.93-3.91-8.42-5.91-13.26l.94-.67C255.35,155.26,257.26,160,258.94,164.1Zm-1.7.31-1,.18a121.58,121.58,0,0,1-5.49-12.41l.82-.6C253.46,156.25,255.43,160.59,257.24,164.41Zm-6.88-13.21,0,0,.77-.6,0,.06Zm-9.89,9.85a38,38,0,0,0,1.38,4.36l-.61,0c-.48-1.27-.9-2.54-1.25-3.84Zm2.63,7.3c.08.16.14.32.22.48l-.61-.09-.24-.49Zm.78,1.55.19.35-.64-.1c-.06-.11-.13-.22-.19-.34Zm.77,1.44c.19.33.4.65.6,1l-.65-.16c-.19-.3-.36-.6-.54-.91Zm1.31,2.13c.12.19.25.36.37.54l-.61-.13c-.12-.17-.23-.35-.34-.52Zm5.71-.3c.55-.34,1.11-.7,1.7-1.09l.79,0c-.78.4-1.53.76-2.26,1.09Zm4.69-1.1c.93,0,1.83-.09,2.72-.17.2.34.39.66.59,1a43.92,43.92,0,0,1-5.55.36C254.85,172.88,255.6,172.49,256.36,172.07Zm3.82-.28.67-.08.47.93-.58.09Zm1.62,1.77.15.29-.46.09-.18-.29Zm3.7-.8h0s0,.08,0,.12Zm-.26-1c-.08-.27-.15-.55-.23-.82l.27-.07c0,.29.08.57.11.85Zm1-1.12c.61-.16,1.22-.34,1.82-.52,0,.26,0,.53,0,.79-.57.19-1.15.37-1.73.54C266.33,171.22,266.29,171,266.26,170.68Zm2.84,1v0Zm1-.25a.49.49,0,0,1,0-.12h0a.49.49,0,0,1,0,.12Zm.05-1.2c0-.25,0-.5,0-.75l.18-.07c0,.25,0,.52-.08.78Zm1.23-1.24.49-.2c0,.25-.05.49-.07.74l-.49.22C271.34,169.47,271.37,169.21,271.39,169Zm1.54-.68.43-.2c0,.25-.05.49-.08.73l-.42.21C272.88,168.78,272.91,168.53,272.93,168.28Zm1.47-.72c.39-.2.77-.41,1.15-.62l-.09.72c-.37.21-.75.42-1.14.62C274.35,168,274.38,167.8,274.4,167.56Zm.11-1.16c0-.34,0-.66.05-1l1.19-.58c0,.31-.05.62-.08.92C275.29,166,274.9,166.18,274.51,166.4Zm2.26-2.11.51-.28c0,.25,0,.49,0,.74l-.52.34C276.74,164.82,276.75,164.56,276.77,164.29Zm-1-.63c-.38.21-.78.41-1.17.6l0-.51,1.15-.52C275.81,163.37,275.81,163.52,275.8,163.66Zm-1.12-1v-.42l1.15-.47v.35Zm0-1.5c0-.27,0-.55,0-.82l1.1-.47,0,.82Zm2.38-3-.38.18c-.12-1.42-.3-2.85-.56-4.29l.24-.36C276.68,155.23,276.9,156.72,277.06,158.18Zm-1-5.83c-.06.11-.13.21-.2.32-.16-.78-.35-1.55-.56-2.33l.15-.24C275.67,150.85,275.87,151.6,276.05,152.35ZM274.92,149a43.16,43.16,0,0,0-3.3-8,43.87,43.87,0,0,1,3.42,7.79Zm-5.79-10.26.6,1-.53.24-.56-.94Zm-1.9-.11-.54.3c-.8-1.48-1.65-2.92-2.52-4.31A42.13,42.13,0,0,1,267.23,138.66Zm-4.17-3.89c1,1.51,1.89,3.06,2.76,4.68l-.3.18C264.75,138,263.94,136.4,263.06,134.77Zm2,6.27c.12.26.23.53.35.8l-.36.18c-.11-.26-.21-.53-.32-.79Zm-1.2.71c.11.24.2.49.3.74l-.67.36c-.09-.24-.17-.48-.27-.71Zm-1.5.92c.08.22.16.44.25.66-.95.53-1.94,1.09-3,1.7-.06-.17-.13-.33-.19-.49C260.47,143.87,261.45,143.25,262.38,142.67Zm-3.76,2.43.18.45c-.87.52-1.75,1.08-2.65,1.66l-.15-.3C256.9,146.27,257.77,145.67,258.62,145.1Zm-3.44,2.4.12.25c-.51.34-1,.68-1.55,1l-.07-.19C254.18,148.22,254.68,147.86,255.18,147.5Zm-2.33,1.72.06.15L252,150s0-.07,0-.11Zm-6.1-10.2c1.25,3.63,2.6,7.18,4,10.58l-.73.58A98.24,98.24,0,0,1,246.75,139Zm-8.13,24c.19-.21.39-.41.58-.61.28,1,.6,1.94,1,2.91l-.72-.06C239.14,164.47,238.86,163.73,238.62,163Zm2,5,.63.12.22.48-.59-.1C240.82,168.27,240.73,168.11,240.65,167.94Zm.84,1.6.56.11c0,.09.09.19.14.28l-.54-.1Zm.82,1.42.49.09q.21.39.42.75l-.45-.13ZM244,173c.1.15.2.3.29.45l-.32-.1-.32-.43Zm1.15,1.72.55.74,0,0c-.23-.26-.45-.53-.67-.8Zm5.63,2.82c-.45-.63-.93-1.32-1.42-2.09h.15C249.89,176.21,250.32,176.9,250.75,177.57Zm.33-2.93,1-.44c.64,0,1.28,0,1.93,0a45.71,45.71,0,0,0,6.21-.44c.07.11.13.22.2.32A42.25,42.25,0,0,1,251.08,174.64Zm11.35.11c.72,1.38,1.33,2.5,1.8,3.35-.58-.82-1.31-1.92-2.17-3.27Zm4.08-2.06c0-.06,0-.13,0-.2.53-.15,1.07-.32,1.6-.49,0,.06,0,.11,0,.17C267.56,172.36,267,172.53,266.51,172.69Zm4.68-1.74a.41.41,0,0,0,0-.11l.49-.2v.09Zm1.56-.72v-.07l.39-.18V170Zm1.45-.76,1-.52-1,.54Zm2.89-2.79-.55.34c0-.24.06-.47.08-.71l.54-.32C277.14,166.22,277.11,166.45,277.09,166.68Zm1.17-2.61c0-.2,0-.4,0-.61,1.08-.61,2.13-1.24,3.16-1.89C280.39,162.46,279.34,163.31,278.26,164.07Zm3-3.56q-1.46.92-3,1.8a2.44,2.44,0,0,0,0-.27C279.26,161.55,280.25,161,281.25,160.51Zm-4,.91-.46.22v-.32l.45-.2C277.27,161.22,277.28,161.32,277.28,161.42Z" style="fill:#DF8FBC"></path><path d="M283.41,157.81a.49.49,0,0,0,.16-.69.5.5,0,0,0-.69-.15,49.12,49.12,0,0,1-4.71,2.62c0-.26,0-.53-.07-.8,1.78-.86,3.55-1.8,5.28-2.82a.5.5,0,0,0,.17-.68.49.49,0,0,0-.68-.18c-1.6.95-3.23,1.8-4.87,2.6a46.88,46.88,0,0,0-.89-5.16,59.28,59.28,0,0,0,3.67-6.87.49.49,0,0,0-.25-.66.5.5,0,0,0-.66.25,55.61,55.61,0,0,1-3.1,5.91c-.19-.74-.41-1.48-.65-2.23a50.93,50.93,0,0,0,3-5.95.51.51,0,0,0-.27-.66.5.5,0,0,0-.65.27,49.72,49.72,0,0,1-2.5,5.07,44.39,44.39,0,0,0-3.65-7.9c1.55-.67,2.46-1,2.51-1a.49.49,0,0,0,.29-.64.5.5,0,0,0-.64-.3s-1,.39-2.69,1.11q-.31-.53-.66-1c1-.5,1.57-.76,1.6-.78a.49.49,0,0,0,.25-.66.5.5,0,0,0-.66-.25s-.67.31-1.76.86c-.69-1-1.43-2-2.23-2.94a.49.49,0,0,0-.7-.06.5.5,0,0,0-.18.36c-.22-.28-.45-.55-.68-.82a.49.49,0,0,0-.7-.06.51.51,0,0,0-.06.71,39.14,39.14,0,0,1,2.84,3.7l-.49.26a43.53,43.53,0,0,0-4-5.21.5.5,0,0,0-.71,0,.39.39,0,0,0-.13.21,2.9,2.9,0,0,1-.19-.29.5.5,0,0,0-.7-.14.49.49,0,0,0-.21.31l-.14-.26a.51.51,0,0,0-.68-.2.5.5,0,0,0-.19.68c1.29,2.33,2.47,4.61,3.54,6.87l-.27.16a52.64,52.64,0,0,0-4-7.63.5.5,0,1,0-.84.54,50.86,50.86,0,0,1,3.95,7.61l-.67.4a72.83,72.83,0,0,0-4.28-8.51.49.49,0,0,0-.68-.18.51.51,0,0,0-.18.69,70.08,70.08,0,0,1,4.28,8.53c-.93.58-1.91,1.2-2.92,1.87a62,62,0,0,0-5.52-10.15.49.49,0,0,0-.69-.13.5.5,0,0,0-.14.69,61.89,61.89,0,0,1,5.51,10.15c-.87.58-1.75,1.18-2.66,1.83a106.37,106.37,0,0,0-6.19-11,.5.5,0,0,0-.84.55,107.12,107.12,0,0,1,6.21,11l-1.46,1.06c-1.62-3.92-3.32-8-5-12a.5.5,0,0,0-.66-.26.5.5,0,0,0-.26.65c1.74,4.08,3.47,8.19,5.13,12.18l-.92.69c-1.61-4-3.17-8.17-4.57-12.45a.5.5,0,0,0-.64-.31.48.48,0,0,0-.34.44.57.57,0,0,0-.26,0,.5.5,0,0,0-.39.59,99.93,99.93,0,0,0,3.82,13.64c-1.77,1.43-3.56,3-5.34,4.61a47.22,47.22,0,0,1,1-17.07.5.5,0,0,0-1-.23,48.44,48.44,0,0,0-.87,18.15l-.66.61a47.13,47.13,0,0,1,.5-17,.49.49,0,0,0-.38-.59.5.5,0,0,0-.6.39,47.91,47.91,0,0,0-.39,18.05l-.49.48a42.54,42.54,0,0,1,.42-16.43.52.52,0,0,0-.39-.6.51.51,0,0,0-.59.39,43.44,43.44,0,0,0-.31,17.52l-.49.5a33.19,33.19,0,0,1,.2-15.59.5.5,0,1,0-1-.27,34.37,34.37,0,0,0-.06,16.72l-.64.69a25.67,25.67,0,0,1-.57-12.69.51.51,0,0,0-.37-.61.5.5,0,0,0-.6.37,27.07,27.07,0,0,0,.75,13.79c-.38.42-.76.84-1.13,1.27a.51.51,0,0,0,.05.71.53.53,0,0,0,.1.06.51.51,0,0,0,.11.61.5.5,0,0,0,.33.12.48.48,0,0,0,.37-.17l.74-.82q.21.61.45,1.23c-.36-.05-.74-.09-1.09-.15a.5.5,0,0,0-.16,1,.66.66,0,0,0-.09.19.5.5,0,0,0,.34.57.2.2,0,0,0,0,.08.5.5,0,0,0,.38.6l1.79.38c.07.16.15.32.23.48l-.95-.18a.5.5,0,0,0-.6.38.51.51,0,0,0,.39.6c.59.12,1.15.21,1.73.31l.14.28-.79-.15a.5.5,0,1,0-.2,1c.55.12,1.08.2,1.63.3l.27.47-.5-.18a.5.5,0,0,0-.65.29.5.5,0,0,0,.29.64c.55.21,1.12.4,1.7.58.06.08.11.16.16.24a.5.5,0,0,0-.61.27.5.5,0,0,0,.26.66c.42.19.89.36,1.38.53.57.78,1.16,1.53,1.8,2.25,0,0,0,0,0,.05l.05,0,0,0a.46.46,0,0,0,.23.06h0a.39.39,0,0,0,.15,0l.71-.22c.47.59,1,1.17,1.46,1.73a.51.51,0,0,0,.37.17.55.55,0,0,0,.34-.13.5.5,0,0,0,0-.71c-.4-.45-.79-.93-1.18-1.4l.32-.11c1,1.39,2.14,2.76,3.36,4.11a.5.5,0,0,0,.37.17.51.51,0,0,0,.33-.13.59.59,0,0,0,.13-.19h0a.48.48,0,0,0,.18-.39c.11.14.21.29.31.43a.51.51,0,0,0,.41.2.46.46,0,0,0,.29-.1.5.5,0,0,0,.11-.7,44.57,44.57,0,0,1-2.49-3.76c.87.06,1.76.1,2.69.1A44.52,44.52,0,0,0,261,175c2.17,3.43,3.67,5.4,3.71,5.46a.5.5,0,0,0,.4.19.47.47,0,0,0,.3-.1.5.5,0,0,0,.19-.4.29.29,0,0,0,.1,0h0a.57.57,0,0,0,.18,0l0,0h0l.05,0,.07-.06.06-.08,0-.09s0-.06,0-.09a0,0,0,0,1,0,0h0l0,.06.1.06.05,0a.58.58,0,0,0,.18,0h.1l.05,0,.1,0,.07-.06.07-.06a.35.35,0,0,0,.05-.08.36.36,0,0,0,0-.09.31.31,0,0,0,0-.1.14.14,0,0,0,0-.06c0-.07-.08-2.25-.46-5.74.48-.14.95-.29,1.42-.45a46.71,46.71,0,0,1-.53,5.62.5.5,0,0,0,.41.58H268a.49.49,0,0,0,.49-.41.46.46,0,0,0,.19.08h.1a.51.51,0,0,0,.47-.34l.08,0h.11a.51.51,0,0,0,.49-.39c.49-2.2.86-4.3,1.13-6.34l.48-.21c-.23,1.76-.54,3.58-.93,5.48a.5.5,0,0,0,.39.59h.1a.5.5,0,0,0,.49-.4c.44-2.14.78-4.19,1-6.17l.35-.16c-.26,1.71-.55,3.45-.93,5.25a.5.5,0,0,0,.39.59l.1,0a.51.51,0,0,0,.49-.4c.43-2.06.76-4.06,1-6l1-.52a33.77,33.77,0,0,1-1.44,5.12.49.49,0,0,0,.29.64.39.39,0,0,0,.18,0,.52.52,0,0,0,.47-.33,35.46,35.46,0,0,0,1.64-6.12c.18-.11.36-.2.53-.31a21.49,21.49,0,0,1-1.34,4.52.51.51,0,0,0,.45.71.5.5,0,0,0,.46-.3,23.28,23.28,0,0,0,1.57-5.65,44.24,44.24,0,0,0,4.12-3,.49.49,0,0,0,.06-.7.49.49,0,0,0-.36-.18c.27-.23.56-.44.83-.68a.49.49,0,0,0,.05-.7.51.51,0,0,0-.71-.06,37.9,37.9,0,0,1-3.7,2.84l.06-.68a42.79,42.79,0,0,0,4.89-3.85.49.49,0,0,0,0-.7.42.42,0,0,0-.22-.13l.3-.2a.5.5,0,0,0,.14-.69.54.54,0,0,0-.31-.21l.26-.14a.5.5,0,0,0-.49-.88c-1.54.86-3.06,1.66-4.57,2.43a2.35,2.35,0,0,0,0-.27A50,50,0,0,0,283.41,157.81Zm-6.2,2.23-.42.19c0-.27,0-.54,0-.81l.41-.19C277.18,159.5,277.2,159.77,277.21,160Zm.09,2.49v.33l-.49.27c0-.13,0-.25,0-.38Zm-8.24,6.32c0-.37,0-.75-.06-1.13l.17-.06c0,.39,0,.76,0,1.15Zm.11.94c0,.27,0,.53,0,.79l-.07,0v-.77Zm-5.41,3.66-.1-.25.87-.2.06.24C264.31,173.31,264,173.39,263.76,173.45Zm1.08.74c.63,2.46,1,4.19,1.16,4.93l-1.87-4.75Zm-10.08-3.05,1.07-.76,1.71-.13-1.53.88Zm17-13c-.17.21-.35.42-.53.62-.08-.81-.18-1.61-.31-2.4.18-.21.35-.43.52-.65C271.6,156.54,271.7,157.35,271.79,158.18Zm.52-3.51c.27-.35.53-.71.79-1.08.14.83.25,1.66.35,2.51-.26.34-.51.67-.77,1C272.58,156.27,272.45,155.46,272.31,154.67Zm-24,19.2.2,0-.14.07Zm-.62-1.1c-.2-.35-.4-.72-.59-1.09l.37,0c.18.38.35.75.54,1.11Zm-1.13-2.15c-.06-.14-.13-.28-.2-.42l.44,0c.07.14.13.28.19.42Zm-.68-1.46c-.07-.16-.15-.32-.22-.49l.52.06c.06.16.12.32.19.48Zm-.53-2.66,0,.06-.58,0v0h.57Zm-.16,1.05h.54l0,.1-.56,0Zm17.22-1.61c.09.27.18.54.26.8-.5.12-1,.22-1.5.32l-.25-.62.3-.26Zm-1.83,2.35-.28.19-.11-.21.36-.06Zm-.71-1,.24-.19a.58.58,0,0,0,.05.14Zm-.71,1.14c.09.2.19.38.28.57l-.85.12-.31-.56Zm6.31-2.59c.35-.29.7-.58,1-.89l1.23-.35.06.72c-.76.25-1.53.49-2.3.7Zm3.11-2.78c.1-.09.19-.19.28-.28,0,.15,0,.29,0,.44l-.29.08Zm.13,1.27.28-.09,0,.67-.25.08C268.79,164.77,268.78,164.55,268.75,164.33Zm1.25-.4.56-.18v.61l-.52.2C270,164.35,270,164.14,270,163.93Zm-.09-1c0-.25,0-.49-.07-.74l.67-.22c0,.24,0,.49,0,.74Zm-3.84,1.13-.85.21c0-.2-.07-.4-.11-.6l2.05-.6C266.8,163.4,266.44,163.73,266.07,164.05Zm-2.51,2.08c0-.13-.08-.27-.13-.41l.92-.21Zm-5,1-.61.47-.15,0-.41-.76,1-.15Zm-1.83.62a52.56,52.56,0,0,1-9.81,0c0-.06,0-.12-.07-.19h.48a69.59,69.59,0,0,0,9-.61Zm-9.39,1.09c1.47.11,2.9.18,4.3.18,1.61,0,3.18-.08,4.72-.22l-.86.62a56.19,56.19,0,0,1-8-.1Zm10.18.34,0,.08-.18,0Zm5.52-1.37c.06.19.11.37.17.55l-1.29.26C262.29,168.34,262.66,168.07,263,167.79Zm1-.3.75-.2c0,.22.07.44.11.65l-.68.17Zm1.72-.46c.75-.21,1.49-.43,2.23-.67l0,.65c-.7.24-1.42.46-2.15.67C265.78,167.47,265.75,167.25,265.71,167Zm3.2-1,.2-.07,0,.65-.19.07C268.94,166.46,268.92,166.25,268.91,166Zm1.18-.42.48-.18c0,.21,0,.44,0,.65l-.42.16Zm1.48-.56.51-.2c0,.2,0,.4,0,.6l-.49.21Zm0-1.08v-.56l.53-.19v.54Zm0-1.62c0-.25,0-.5-.05-.75l.55-.21c0,.26,0,.52,0,.78Zm-.12-1.8c0-.13,0-.26,0-.39l.52-.59.06.77Zm-1.05-.73-.7.74c-.09-.76-.18-1.53-.3-2.29.24-.27.48-.54.71-.82C270.19,158.23,270.29,159,270.37,159.82Zm-1.58,1.66h0l-.34.11c-.09-.65-.19-1.3-.3-2l.36-.39C268.6,160,268.71,160.74,268.79,161.48Zm-1.32.45c-.73.23-1.47.44-2.2.65.68-.66,1.35-1.34,2-2C267.36,161,267.41,161.47,267.47,161.93Zm-3.33,2c0,.2.08.4.11.59l-1.12.26a1,1,0,0,1-.05-.16l.62-.56Zm-3.33,1.34-.31.06c-.06-.16-.12-.33-.19-.49.44-.09.89-.18,1.33-.29Zm-1.31.23-.58.1-.21-.43.61-.12Zm-1.61.28-1,.13-.2-.38c.34-.05.67-.12,1-.18C257.76,165.49,257.83,165.62,257.89,165.77Zm-2.06.27a68.11,68.11,0,0,1-9.36.54l0-.09a70.89,70.89,0,0,0,9.2-.81Zm-9.74-.55a52.4,52.4,0,0,1-2-7.92c1.91-1.7,3.84-3.29,5.76-4.76a122.67,122.67,0,0,0,5.28,11.94A70.33,70.33,0,0,1,246.09,165.49Zm-1,0h-.6a47.2,47.2,0,0,1-1.82-6.55l.62-.59A52.86,52.86,0,0,0,245.05,165.5Zm-1.68,0H243a36.91,36.91,0,0,1-1.64-5.24l.46-.46A48.7,48.7,0,0,0,243.37,165.47Zm1.19,3.08c.07.15.13.32.2.47l-.22,0-.26-.49Zm.68,1.53.18.37-.11,0c-.07-.12-.14-.24-.2-.37Zm4,2.89c-.2-.38-.39-.76-.58-1.16,1,.1,2,.17,3,.22l-1.65,1Zm-1.07-2.18-.21-.46c1.48.11,2.94.18,4.33.18.57,0,1.11,0,1.66,0l-1,.65C251.44,171.08,249.83,171,248.18,170.79Zm10.29.07.09.14-.37,0Zm.85-.53c.2-.12.4-.24.59-.37h0l.44.86-.74.08Zm1.67-.54.22,0c.12.31.24.62.36.91l-.12,0Zm.94,1.76c.05.12.09.23.13.35a3.59,3.59,0,0,0-.17-.34Zm1.36.72c-.11-.29-.23-.58-.35-.88l1.09-.2c.08.28.16.58.24.85Zm-.71-1.78-.37-.93c.43-.08.86-.16,1.28-.26.1.34.19.67.28,1C263.38,170.37,263,170.43,262.58,170.49Zm1.88-1.42.54-.14c.05.35.11.7.15,1l-.4.1C264.66,169.74,264.56,169.41,264.46,169.07Zm1.51-.39c.7-.19,1.38-.4,2-.62,0,.36.05.74.06,1.1-.65.21-1.29.41-1.95.58C266.08,169.4,266,169,266,168.68Zm4.2-1.38.32-.13c0,.38,0,.76-.05,1.14l-.27.11C270.16,168,270.17,167.68,270.17,167.3Zm1.35-.53.51-.22c0,.37,0,.75-.07,1.12-.17.08-.33.17-.5.24C271.49,167.53,271.5,167.15,271.52,166.77Zm1.53-.66.51-.23c0,.36-.05.71-.08,1.07l-.49.23Zm0-1.11c0-.19,0-.38,0-.57.19-.08.38-.15.57-.24l0,.55Zm0-1.66v-.48l.63-.24c0,.15,0,.29,0,.45Zm0-1.54c0-.27,0-.53,0-.79l.71-.28c0,.27,0,.54,0,.8ZM273,160c0-.49-.08-1-.13-1.47l.76-.93c0,.69.07,1.41.1,2.12Zm1.46-3.48.88-1.22c.18,1.19.31,2.37.4,3.54l-1.08.47C274.59,158.32,274.52,157.38,274.43,156.47Zm-.16-1.48c-.11-.84-.25-1.66-.41-2.48l.7-1c.19.78.36,1.57.51,2.36Zm-.69-3.83a38.78,38.78,0,0,0-3.89-10.31l.55-.26a41.78,41.78,0,0,1,4,9.58Zm-.71,1c-.27.38-.54.76-.82,1.13a50.33,50.33,0,0,0-4-11.7l.76-.37A37.72,37.72,0,0,1,272.87,152.2Zm-5.25-11.47-.46-.89.62-.34.55.89Zm-.9.45-.4.2c-.12-.28-.24-.57-.37-.85l.34-.19C266.43,140.61,266.58,140.89,266.72,141.18Zm.44.89a49,49,0,0,1,4.08,12.35l-.52.68a59.77,59.77,0,0,0-4-12.81Zm2.72,14.06-.72.87A76,76,0,0,0,265.44,143l.39-.2A57.91,57.91,0,0,1,269.88,156.13ZM268.32,158l-.39.43a80.12,80.12,0,0,0-4.05-14.6l.67-.37A74.81,74.81,0,0,1,268.32,158Zm-1.24,1.36c-.78.83-1.57,1.63-2.36,2.4A98.21,98.21,0,0,0,260,146c1-.6,2-1.16,3-1.69A78.94,78.94,0,0,1,267.08,159.32Zm-3.22,3.21-.62.59-.61.15a145.38,145.38,0,0,0-6.05-15.16c.88-.56,1.75-1.11,2.6-1.62A97.44,97.44,0,0,1,263.86,162.53Zm-2.2,1-1.73.37c-1.71-4.24-3.68-9.07-5.79-14.16l1.59-1.07A143.63,143.63,0,0,1,261.66,163.52Zm-2.72.58-.67.14c-1.88-3.93-3.91-8.42-5.91-13.26l.94-.67C255.35,155.26,257.26,160,258.94,164.1Zm-1.7.31-1,.18a121.58,121.58,0,0,1-5.49-12.41l.82-.6C253.46,156.25,255.43,160.59,257.24,164.41Zm-6.88-13.21,0,0,.77-.6,0,.06Zm-9.89,9.85a38,38,0,0,0,1.38,4.36l-.61,0c-.48-1.27-.9-2.54-1.25-3.84Zm2.63,7.3c.08.16.14.32.22.48l-.61-.09-.24-.49Zm.78,1.55.19.35-.64-.1c-.06-.11-.13-.22-.19-.34Zm.77,1.44c.19.33.4.65.6,1l-.65-.16c-.19-.3-.36-.6-.54-.91Zm1.31,2.13c.12.19.25.36.37.54l-.61-.13c-.12-.17-.23-.35-.34-.52Zm5.71-.3c.55-.34,1.11-.7,1.7-1.09l.79,0c-.78.4-1.53.76-2.26,1.09Zm4.69-1.1c.93,0,1.83-.09,2.72-.17.2.34.39.66.59,1a43.92,43.92,0,0,1-5.55.36C254.85,172.88,255.6,172.49,256.36,172.07Zm3.82-.28.67-.08.47.93-.58.09Zm1.62,1.77.15.29-.46.09-.18-.29Zm3.7-.8h0s0,.08,0,.12Zm-.26-1c-.08-.27-.15-.55-.23-.82l.27-.07c0,.29.08.57.11.85Zm1-1.12c.61-.16,1.22-.34,1.82-.52,0,.26,0,.53,0,.79-.57.19-1.15.37-1.73.54C266.33,171.22,266.29,171,266.26,170.68Zm2.84,1v0Zm1-.25a.49.49,0,0,1,0-.12h0a.49.49,0,0,1,0,.12Zm.05-1.2c0-.25,0-.5,0-.75l.18-.07c0,.25,0,.52-.08.78Zm1.23-1.24.49-.2c0,.25-.05.49-.07.74l-.49.22C271.34,169.47,271.37,169.21,271.39,169Zm1.54-.68.43-.2c0,.25-.05.49-.08.73l-.42.21C272.88,168.78,272.91,168.53,272.93,168.28Zm1.47-.72c.39-.2.77-.41,1.15-.62l-.09.72c-.37.21-.75.42-1.14.62C274.35,168,274.38,167.8,274.4,167.56Zm.11-1.16c0-.34,0-.66.05-1l1.19-.58c0,.31-.05.62-.08.92C275.29,166,274.9,166.18,274.51,166.4Zm2.26-2.11.51-.28c0,.25,0,.49,0,.74l-.52.34C276.74,164.82,276.75,164.56,276.77,164.29Zm-1-.63c-.38.21-.78.41-1.17.6l0-.51,1.15-.52C275.81,163.37,275.81,163.52,275.8,163.66Zm-1.12-1v-.42l1.15-.47v.35Zm0-1.5c0-.27,0-.55,0-.82l1.1-.47,0,.82Zm2.38-3-.38.18c-.12-1.42-.3-2.85-.56-4.29l.24-.36C276.68,155.23,276.9,156.72,277.06,158.18Zm-1-5.83c-.06.11-.13.21-.2.32-.16-.78-.35-1.55-.56-2.33l.15-.24C275.67,150.85,275.87,151.6,276.05,152.35ZM274.92,149a43.16,43.16,0,0,0-3.3-8,43.87,43.87,0,0,1,3.42,7.79Zm-5.79-10.26.6,1-.53.24-.56-.94Zm-1.9-.11-.54.3c-.8-1.48-1.65-2.92-2.52-4.31A42.13,42.13,0,0,1,267.23,138.66Zm-4.17-3.89c1,1.51,1.89,3.06,2.76,4.68l-.3.18C264.75,138,263.94,136.4,263.06,134.77Zm2,6.27c.12.26.23.53.35.8l-.36.18c-.11-.26-.21-.53-.32-.79Zm-1.2.71c.11.24.2.49.3.74l-.67.36c-.09-.24-.17-.48-.27-.71Zm-1.5.92c.08.22.16.44.25.66-.95.53-1.94,1.09-3,1.7-.06-.17-.13-.33-.19-.49C260.47,143.87,261.45,143.25,262.38,142.67Zm-3.76,2.43.18.45c-.87.52-1.75,1.08-2.65,1.66l-.15-.3C256.9,146.27,257.77,145.67,258.62,145.1Zm-3.44,2.4.12.25c-.51.34-1,.68-1.55,1l-.07-.19C254.18,148.22,254.68,147.86,255.18,147.5Zm-2.33,1.72.06.15L252,150s0-.07,0-.11Zm-6.1-10.2c1.25,3.63,2.6,7.18,4,10.58l-.73.58A98.24,98.24,0,0,1,246.75,139Zm-8.13,24c.19-.21.39-.41.58-.61.28,1,.6,1.94,1,2.91l-.72-.06C239.14,164.47,238.86,163.73,238.62,163Zm2,5,.63.12.22.48-.59-.1C240.82,168.27,240.73,168.11,240.65,167.94Zm.84,1.6.56.11c0,.09.09.19.14.28l-.54-.1Zm.82,1.42.49.09q.21.39.42.75l-.45-.13ZM244,173c.1.15.2.3.29.45l-.32-.1-.32-.43Zm1.15,1.72.55.74,0,0c-.23-.26-.45-.53-.67-.8Zm5.63,2.82c-.45-.63-.93-1.32-1.42-2.09h.15C249.89,176.21,250.32,176.9,250.75,177.57Zm.33-2.93,1-.44c.64,0,1.28,0,1.93,0a45.71,45.71,0,0,0,6.21-.44c.07.11.13.22.2.32A42.25,42.25,0,0,1,251.08,174.64Zm11.35.11c.72,1.38,1.33,2.5,1.8,3.35-.58-.82-1.31-1.92-2.17-3.27Zm4.08-2.06c0-.06,0-.13,0-.2.53-.15,1.07-.32,1.6-.49,0,.06,0,.11,0,.17C267.56,172.36,267,172.53,266.51,172.69Zm4.68-1.74a.41.41,0,0,0,0-.11l.49-.2v.09Zm1.56-.72v-.07l.39-.18V170Zm1.45-.76,1-.52-1,.54Zm2.89-2.79-.55.34c0-.24.06-.47.08-.71l.54-.32C277.14,166.22,277.11,166.45,277.09,166.68Zm1.17-2.61c0-.2,0-.4,0-.61,1.08-.61,2.13-1.24,3.16-1.89C280.39,162.46,279.34,163.31,278.26,164.07Zm3-3.56q-1.46.92-3,1.8a2.44,2.44,0,0,0,0-.27C279.26,161.55,280.25,161,281.25,160.51Zm-4,.91-.46.22v-.32l.45-.2C277.27,161.22,277.28,161.32,277.28,161.42Z" style="opacity:0.2"></path><path d="M283.53,157.2s-.93-.59-2.51-1.47c.14-.38.29-.77.42-1.16,1,.49,1.56.78,1.6.8a.46.46,0,0,0,.23.06.5.5,0,0,0,.24-.94s-.65-.34-1.75-.88c.37-1.15.71-2.33,1-3.55a.49.49,0,0,0-.76-.52l.24-1a.5.5,0,0,0-.39-.59.49.49,0,0,0-.59.38,42.42,42.42,0,0,1-1.22,4.5l-.51-.23a41.94,41.94,0,0,0,1.7-6.37.5.5,0,0,0-.4-.58.57.57,0,0,0-.26,0l.12-.33a.5.5,0,0,0-.3-.64.55.55,0,0,0-.38,0l.12-.27a.5.5,0,0,0-.92-.4c-1.06,2.44-2.16,4.76-3.31,7l-.29-.12a53,53,0,0,0,3.66-7.79.51.51,0,0,0-.3-.64.5.5,0,0,0-.64.3,52.57,52.57,0,0,1-3.65,7.76l-.73-.29a72.11,72.11,0,0,0,4.17-8.56.5.5,0,0,0-.27-.65.51.51,0,0,0-.66.27,72.45,72.45,0,0,1-4.18,8.58c-1-.39-2.12-.79-3.26-1.19a61.89,61.89,0,0,0,4.72-10.54.52.52,0,0,0-.32-.64.51.51,0,0,0-.63.32,62.18,62.18,0,0,1-4.73,10.53c-1-.34-2-.67-3.06-1a107.52,107.52,0,0,0,5-11.58.49.49,0,0,0-.3-.64.5.5,0,0,0-.64.3,104.69,104.69,0,0,1-5,11.62l-1.73-.51c2.13-3.67,4.3-7.46,6.45-11.25a.5.5,0,0,0-.19-.68.49.49,0,0,0-.68.19c-2.19,3.86-4.41,7.72-6.57,11.46l-1.11-.31c2.19-3.69,4.58-7.48,7.12-11.19a.49.49,0,0,0-.13-.69.5.5,0,0,0-.56,0,.52.52,0,0,0-.14-.22.48.48,0,0,0-.7,0A99.48,99.48,0,0,0,258,145.19c-2.21-.53-4.51-1-6.9-1.44a47.46,47.46,0,0,1,14.13-9.61.5.5,0,1,0-.4-.91,48.38,48.38,0,0,0-15,10.31l-.89-.14a47,47,0,0,1,13.81-9.92.49.49,0,0,0,.24-.66.5.5,0,0,0-.66-.24,47.62,47.62,0,0,0-14.59,10.64l-.68-.1a42.67,42.67,0,0,1,13.31-9.64.49.49,0,0,0,.24-.66.5.5,0,0,0-.67-.24A43.53,43.53,0,0,0,245.84,143l-.7-.08a33.12,33.12,0,0,1,12.52-9.3.5.5,0,1,0-.37-.93A34.41,34.41,0,0,0,244,142.75l-.94-.09a25.72,25.72,0,0,1,9.75-8.16.5.5,0,1,0-.4-.91c-3.83,1.64-7.5,4.88-10.51,9l-1.7-.13a.52.52,0,0,0-.53.47.5.5,0,0,0,0,.12.49.49,0,0,0-.42.46.5.5,0,0,0,.46.53l1.1.08c-.24.37-.48.74-.71,1.11-.18-.32-.37-.64-.54-.95a.5.5,0,1,0-.88.46.46.46,0,0,0-.2.05.49.49,0,0,0-.25.61l-.09,0a.49.49,0,0,0-.24.66c.25.56.51,1.11.78,1.66l-.25.47c-.14-.29-.29-.57-.43-.86a.5.5,0,0,0-.66-.24.5.5,0,0,0-.24.67c.26.54.52,1.06.78,1.58l-.12.26-.36-.71a.5.5,0,1,0-.9.43c.24.51.5,1,.75,1.49l-.21.49c-.05-.18-.11-.35-.16-.52a.5.5,0,0,0-1,.29c.17.56.37,1.13.57,1.7l-.09.28a.5.5,0,0,0-.95.28c.11.45.25.93.41,1.42-.26.92-.51,1.85-.7,2.78h0v.19a.05.05,0,0,0,0,0,.11.11,0,0,0,0,.08s0,0,0,.06l0,0,.06.07s0,0,0,0h0l.6.42c-.18.73-.35,1.47-.49,2.21a.5.5,0,0,0,.4.58H236a.49.49,0,0,0,.49-.4c.12-.61.26-1.2.4-1.8l.28.19q-.72,2.49-1.23,5.16a.5.5,0,0,0,.4.59h.09l.13,0h0l.13,0a.48.48,0,0,0,.3-.11c0,.17-.11.34-.16.51a.51.51,0,0,0,.34.62l.14,0a.49.49,0,0,0,.48-.36c.4-1.38.89-2.8,1.47-4.25a44.09,44.09,0,0,0,6.7,7.83c-1.4,3.8-2.06,6.18-2.08,6.25a.52.52,0,0,0,.35.62h.13a.53.53,0,0,0,.3-.09,0,0,0,0,1,0,0l.05.07a.46.46,0,0,0,.07.07l.05,0h0l0,0a.58.58,0,0,0,.19,0h0a.61.61,0,0,0,.26-.08h0s0,.07,0,.1a.28.28,0,0,0,0,.09.29.29,0,0,0,0,.09.41.41,0,0,0,0,.09s0,0,0,.05l0,0s0,0,0,0l.08.05.06,0a.65.65,0,0,0,.2,0h0a.39.39,0,0,0,.18,0l0,0,.08,0c.06-.05,1.74-1.42,4.28-3.84.4.29.81.58,1.23.85a46.24,46.24,0,0,1-4.8,3,.49.49,0,0,0-.2.67.5.5,0,0,0,.44.27.46.46,0,0,0,.23-.06.46.46,0,0,0,0,.2.48.48,0,0,0,.45.28l.16,0a.15.15,0,0,0,0,.09.49.49,0,0,0,.45.29.54.54,0,0,0,.21,0q3.06-1.41,5.73-2.94l.46.25q-2.31,1.33-4.93,2.59a.5.5,0,0,0,.22.95.59.59,0,0,0,.22-.05c2-.95,3.8-1.92,5.52-2.93l.34.17c-1.51.84-3.07,1.66-4.74,2.46a.5.5,0,0,0,.22.95.59.59,0,0,0,.22,0c1.89-.91,3.67-1.85,5.38-2.82l1,.48a34.33,34.33,0,0,1-4.95,2,.5.5,0,0,0-.33.62.49.49,0,0,0,.48.36l.14,0a35.59,35.59,0,0,0,5.86-2.41l.58.24a21.52,21.52,0,0,1-4.42,1.67.5.5,0,0,0-.37.6.5.5,0,0,0,.49.38h.11a23,23,0,0,0,5.43-2.17,44.53,44.53,0,0,0,4.92,1.44h.11a.51.51,0,0,0,.49-.39.49.49,0,0,0-.08-.39c.35.08.69.17,1,.24h.1a.5.5,0,0,0,.1-1,40.16,40.16,0,0,1-4.5-1.22l.59-.38a43,43,0,0,0,6,1.57h.09a.51.51,0,0,0,.5-.41.57.57,0,0,0,0-.26l.33.12a.47.47,0,0,0,.17,0,.52.52,0,0,0,.47-.33.55.55,0,0,0,0-.38l.27.12a.45.45,0,0,0,.2,0,.49.49,0,0,0,.45-.3.5.5,0,0,0-.25-.66c-1.62-.7-3.18-1.42-4.7-2.16l.21-.17a48.84,48.84,0,0,0,5.41,2.39l.18,0a.49.49,0,0,0,.46-.33.49.49,0,0,0-.29-.64,50.11,50.11,0,0,1-4.95-2.15l.61-.55c1.77.89,3.57,1.74,5.43,2.49a.43.43,0,0,0,.19,0,.5.5,0,0,0,.46-.31.49.49,0,0,0-.27-.65c-1.72-.7-3.39-1.48-5-2.3a44,44,0,0,0,3.57-3.84,58.14,58.14,0,0,0,7.69-1.24.5.5,0,0,0-.23-1,55.56,55.56,0,0,1-6.58,1.12q.71-.9,1.38-1.86a52.68,52.68,0,0,0,6.55-1.23.5.5,0,0,0-.25-1,54.78,54.78,0,0,1-5.54,1.1,45,45,0,0,0,4.06-7.71c1.47.83,2.3,1.35,2.34,1.37a.47.47,0,0,0,.27.08.48.48,0,0,0,.42-.23A.5.5,0,0,0,283.53,157.2Zm-15,10.49h-1.25c.59-.58,1.16-1.17,1.7-1.77h1.33C269.74,166.5,269.14,167.1,268.52,167.69ZM248,166.64l.47.49c-.16.32-.31.64-.46,1l-.42-.41Zm17.41-.81c-.56.56-1.13,1.12-1.72,1.66-.34,0-.67-.06-1-.1.55-.54,1.11-1.08,1.65-1.64Zm.45,1.8-.8,0c.59-.56,1.16-1.13,1.72-1.71h.83C267.06,166.48,266.48,167.06,265.87,167.63Zm-16.64.25,0,0-.19.32C249.12,168.11,249.17,168,249.23,167.88Zm.42-.89.44-.9.16.15q-.25.44-.51.84Zm-10.47-8.48.09.18-.14-.06Zm.49-1.16c.16-.37.34-.75.52-1.14.06.11.13.21.2.32-.2.38-.37.75-.56,1.12Zm1-2.2.21-.4.24.39c-.08.13-.15.26-.22.39Zm.75-1.43.25-.46.27.45c-.08.14-.18.29-.26.44Zm1.44-2.49.35.46,0,.05-.34-.48Zm-.58,1c.1.16.2.31.31.46a.56.56,0,0,1-.05.08l-.3-.48A.21.21,0,0,1,242.31,152.19Zm8.63,9.92c-.07.14-.14.27-.2.41l-.75-.2-.1-.11c.11-.26.23-.52.35-.78Zm3.1,2.8-.49.7c-.39-.33-.78-.66-1.16-1l.34-.57.38.08Zm-3,0-.33-.11a1.86,1.86,0,0,0,.1-.2l.27.24Zm.35-1.17.3.07a.57.57,0,0,1-.08.13Zm-1.34.14-.28.56-.6-.61c.08-.19.17-.38.25-.58Zm5.9,3.43c.45.1.89.21,1.35.3l1,.76-.54.49q-1-.69-2-1.41Zm4.1.78.4.06-.34.3-.24-.17Zm-.92.88.23.16-.51.44a1.64,1.64,0,0,1-.22-.14C258.81,169.24,259,169.09,259.15,168.94Zm1.06.76.48.33-.48.37-.47-.29ZM261,169l.55-.5.58.39-.57.48Zm-3.22-2.37-.69-.54.41-.46c.56.43,1.14.85,1.72,1.27Q258.45,166.79,257.74,166.64Zm-3.18-.73.24-.35.72.6Zm-5.42-4.47a52.59,52.59,0,0,1-6-7.75l.11-.19a70,70,0,0,0,6.22,7.17Zm-6.57-6.79a54.15,54.15,0,0,0,5.5,7.13l-1-.3a56.39,56.39,0,0,1-4.74-6.39Zm5.91,8.29a.3.3,0,0,0,0,.08l-.13-.13Zm4.44,3.55-.34.47-1-.86Zm.81.58.61.49-.44.47-.55-.43Zm1.41,1.1c.62.47,1.25.92,1.89,1.36l-.5.42c-.62-.41-1.23-.85-1.84-1.3Zm2.73,1.93.18.12-.49.42-.17-.11Zm1.05.69.44.27c-.17.13-.36.25-.53.37l-.39-.24Zm1.36.84.47.28-.5.35-.46-.27Zm.87-.66.44-.35.46.3-.44.33Zm1.25-1,.58-.49.49.3-.61.5Zm1.37-1.17.31-.28c.26,0,.51.05.77.06l-.58.52Zm-2.35-1.54h0l-.3-.2c.47-.46.93-.94,1.39-1.43l.52.06C262.49,166.2,262,166.73,261.42,167.25Zm-1.15-.78c-.64-.45-1.25-.91-1.87-1.37.94.15,1.89.27,2.86.38C260.93,165.82,260.6,166.14,260.27,166.47ZM256.66,165l-.4.45-.89-.74.1-.14.84.15Zm-3.09-1.83-.22-.21.27-.45c.34.29.67.59,1,.88Zm-1-.91-.43-.4.21-.42.47.4C252.76,162,252.68,162.15,252.6,162.29Zm-1.19-1.1c-.25-.24-.48-.49-.73-.73l.19-.39.75.7C251.55,160.91,251.48,161,251.41,161.19Zm-1.47-1.48a68.13,68.13,0,0,1-6.11-7.11l.06-.08a70.08,70.08,0,0,0,6.22,6.83C250.05,159.47,250,159.59,249.94,159.71Zm.62-1.31a69.87,69.87,0,0,1-6.08-6.75,50.83,50.83,0,0,1,5.11-6.38c2.5.48,4.93,1,7.26,1.69A119.93,119.93,0,0,0,250.56,158.4Zm-6.73-7.58-.37-.48a48.37,48.37,0,0,1,4.1-5.43l.86.14A54.22,54.22,0,0,0,243.83,150.82Zm-1-1.36-.25-.35a39.68,39.68,0,0,1,3.17-4.48l.65.09A48.6,48.6,0,0,0,242.83,149.46Zm-1.72,2.81-.26.45-.11-.19c.07-.17.15-.34.23-.5C241,152.11,241.06,152.19,241.11,152.27Zm-.81,1.48c-.07.12-.13.24-.19.36,0,0,0-.07-.05-.1s.11-.25.17-.38Zm.14,4.94c.18-.38.36-.77.56-1.16q.8,1.28,1.62,2.46c-.64-.23-1.24-.46-1.81-.69C240.68,159.1,240.56,158.9,240.44,158.69Zm1.09-2.17c.07-.14.15-.28.23-.42a58.6,58.6,0,0,0,3.51,4.81l-1.09-.37C243.27,159.28,242.39,157.93,241.53,156.52Zm4.94,5.82,1.14,1.28c-.55-.23-1.09-.45-1.61-.68-.26-.32-.51-.66-.77-1Zm1.24,2.39-.06.16c-.09-.09-.17-.19-.25-.28Zm.94.35.63.24.05.05-.42.86-.51-.54Zm-.31,6.28.58.46c-1.57,2-2.72,3.34-3.21,3.91Zm.52-.85.13-.23.69.57-.15.19C249.3,170.87,249.08,170.69,248.86,170.51Zm.65-1.09c.16-.27.33-.54.49-.82.27.25.54.51.82.75l-.54.71C250,169.85,249.76,169.64,249.51,169.42Zm1-1.64.51-.85,1,.85-.61.82C251.08,168.34,250.79,168.06,250.49,167.78Zm2.27.63.43.35c-.24.26-.49.51-.72.75l-.33-.26Zm1.23,1c.58.43,1.16.85,1.74,1.25l-.84.71c-.56-.39-1.11-.78-1.65-1.2C253.49,169.9,253.74,169.64,254,169.38Zm2.6,1.83.15.09c-.3.24-.61.46-.91.69l-.1-.06Zm1,.66.3.19c-.32.21-.61.43-.94.64l-.25-.15C257,172.32,257.34,172.11,257.63,171.87Zm1.26.76.46.27-.93.62-.48-.24Zm1.43.81c.17.09.33.19.5.27l-.9.58c-.16-.07-.32-.16-.48-.24Zm.91-.65.45-.33.55.31-.46.3Zm1.33-1,.37-.3.58.35-.36.27Zm1.2-1,.61-.52.65.4-.64.48Zm1.41-1.2c.38-.33.75-.67,1.11-1l1.2,0c-.52.47-1.08.93-1.64,1.38C265.61,169.92,265.4,169.78,265.17,169.64Zm4.71-4.74a50,50,0,0,0,6.88-10.28l.75.38a37.07,37.07,0,0,1-6.24,9.86Zm7.33-11.17.43-.9.64.28c-.12.33-.24.65-.37,1Zm-.9-.45-.4-.19c.15-.27.3-.54.44-.81l.37.15C276.58,152.72,276.45,153,276.31,153.28Zm-.45.9a49.33,49.33,0,0,1-7.33,10.73h-.84A60,60,0,0,0,275.43,154Zm-9.53,10.69-1.12-.05a75.88,75.88,0,0,0,8.91-11.48l.39.19A57.34,57.34,0,0,1,266.33,164.87Zm-2.39-.13-.58-.05a79.38,79.38,0,0,0,9.15-12.08l.7.32A75.84,75.84,0,0,1,263.94,164.74Zm-1.83-.16c-1.14-.12-2.25-.26-3.35-.42a98.18,98.18,0,0,0,9.69-13.28c1.1.44,2.15.89,3.14,1.32A79.21,79.21,0,0,1,262.11,164.58ZM257.6,164l-.85-.14-.49-.39a145.62,145.62,0,0,0,8.38-14c1,.36,1.95.72,2.87,1.08A97.59,97.59,0,0,1,257.6,164Zm-2.12-1.16c-.46-.37-.9-.76-1.35-1.14,2.33-3.94,5-8.44,7.75-13.19.61.2,1.22.4,1.81.61A141.23,141.23,0,0,1,255.48,162.81ZM253.36,161l-.51-.44c2-3.88,4.32-8.22,7-12.74l1.1.34C258.22,152.79,255.64,157.16,253.36,161Zm-1.27-1.15-.77-.73a119.84,119.84,0,0,1,6.53-11.88l1,.28C256.28,151.89,254,156.08,252.09,159.85Zm6.32-13.49,0,0,.95.24,0,.06Zm-13.82-1.89a38.23,38.23,0,0,0-2.64,3.75l-.33-.52a39.74,39.74,0,0,1,2.29-3.31ZM240.38,151l-.25.47-.3-.54.24-.48Zm-.77,1.58-.15.34-.32-.56c.06-.11.1-.23.15-.34C239.4,152.2,239.5,152.39,239.61,152.57Zm-.67,1.47c-.14.35-.27.72-.41,1.07-.09-.21-.18-.41-.28-.62.13-.33.27-.65.4-1Zm-.9,2.35c-.08.2-.14.41-.2.61-.09-.19-.19-.38-.27-.57s.14-.39.21-.59C237.86,156,238,156.21,238,156.39Zm3.7,4.34,1.89.68c.16.23.33.44.5.66-.79-.38-1.55-.77-2.26-1.15Zm3.75,3.08c.58.7,1.17,1.38,1.76,2-.14.37-.28.72-.42,1.07a44.53,44.53,0,0,1-3.66-4.2C243.91,163.08,244.68,163.45,245.49,163.81Zm1.72,4.87.37.34c-.05.1-.09.2-.14.29l-.35-.31Zm3.25,2.79h0l-.08.08Zm.6-.79.53-.69.22.18-.62.61Zm1.52.13c.51.39,1,.76,1.53,1.13l-.64.5c-.5-.34-1-.69-1.48-1.05Zm2.38,1.73.08.06-.63.45-.06,0Zm-1.44,1.13-.09.05a.24.24,0,0,0,.08-.06Zm.82.65.1-.07,0,0-.1.06Zm1-.69.61-.47.16.1-.68.42Zm1.74.22c.15.09.29.19.44.27l-.63.4-.46-.26Zm1.47.8.42.23c-.21.12-.42.26-.64.38l-.42-.2Zm1.45.75,1.21.52-.64.38-1.19-.53Zm1-.62c.29-.18.55-.37.82-.56l1.18.59c-.25.17-.51.33-.77.49C261.8,175.14,261.39,175,261,174.78Zm3,.51.53.24c-.2.15-.4.28-.6.42l-.59-.21Zm1-.67.3-.21.47.23-.26.21Zm-1-.47-1.19-.57c.14-.1.29-.19.42-.29l1.12.6Zm.13-1.52.33-.25,1.07.64-.27.21C264.82,173,264.44,172.84,264.07,172.63Zm1.19-.9.65-.5,1,.58-.64.53Zm1.47-1.19c.73-.6,1.43-1.22,2.1-1.85l1.5,0c-.84.87-1.69,1.69-2.57,2.46C267.42,170.93,267.07,170.74,266.73,170.54Zm3.18-2.88c.6-.59,1.16-1.2,1.72-1.82l1.24-.07c-.51.63-1,1.24-1.57,1.84Zm2.62-2.87a38.62,38.62,0,0,0,5.84-9.34l.54.28a42.33,42.33,0,0,1-5.2,9Zm7.15-11c-.13.35-.26.71-.4,1.06l-.51-.27c.14-.34.28-.68.41-1Zm-1.07-1.58-.55-.24c.69-1.54,1.31-3.08,1.89-4.62A41.28,41.28,0,0,1,278.61,152.16Zm.55-5.62c-.61,1.66-1.28,3.33-2,5l-.32-.13C277.63,149.83,278.4,148.21,279.16,146.54Zm-3.74,5.35c-.13.26-.28.51-.42.77l-.37-.18c.15-.24.3-.48.44-.73Zm-1.28-.51-.42.68-.69-.31.4-.65Zm-1.66-.64-.36.6c-1-.44-2.05-.88-3.15-1.33l.27-.45C270.38,150,271.46,150.35,272.48,150.74Zm-4.21-1.51-.24.41c-.95-.37-1.92-.74-2.93-1.1l.15-.3C266.3,148.57,267.3,148.9,268.27,149.23Zm-4-1.29c0,.09-.08.17-.13.26-.57-.21-1.16-.41-1.76-.6l.1-.18Zm-2.78-.8-.08.14-1.09-.35.05-.1Zm4.41-11c-2.13,3.2-4.13,6.42-6,9.58l-.9-.23A99.8,99.8,0,0,1,265.91,136.1Zm-24,8.07.85.09q-.92,1.23-1.74,2.52c-.12-.2-.26-.4-.39-.6C241.05,145.49,241.48,144.82,241.92,144.17Zm-2.71,4.63c.1.19.2.38.29.57l-.24.47c-.1-.18-.19-.36-.28-.54Zm-.76,1.64c.08.17.17.34.26.5s-.1.19-.14.29c-.09-.16-.17-.33-.25-.49S238.4,150.54,238.45,150.44Zm-.63,1.52c.07.15.14.3.22.44-.11.26-.23.52-.33.79l-.18-.44C237.63,152.48,237.72,152.22,237.82,152Zm-.64,2.57-.18.5c0-.1-.08-.21-.11-.32s.09-.34.15-.51C237.08,154.31,237.13,154.42,237.18,154.53Zm-.67,2c-.09.29-.17.58-.25.87l0,0c.07-.34.15-.68.24-1Zm1.14,6.3c.23-.77.51-1.61.84-2.51,0,0,0,.09.08.14C238.24,161.22,237.93,162,237.65,162.79Zm2.57-1.64c.31.18.64.35,1,.53a45.16,45.16,0,0,0,5.24,6.24c0,.12-.09.24-.13.35A42.23,42.23,0,0,1,240.22,161.15Zm6.79,9.1c-.65,1.4-1.18,2.57-1.57,3.46.31-1,.73-2.21,1.28-3.72Zm4.12,2,.14-.14c.45.33.9.65,1.37,1l-.15.1C252,172.87,251.57,172.56,251.13,172.24Zm4.24,2.67.08-.06.45.26-.08,0Zm1.5.79.05,0,.38.2,0,0Zm1.49.69.85.4-.87-.38Zm4,.61-.6-.23.6-.36c.2.08.4.14.6.21Zm2.78-.65.49-.36c1.14.48,2.27.93,3.41,1.36C267.68,177.07,266.37,176.74,265.11,176.35Zm4.66.21c-1.08-.39-2.17-.82-3.25-1.27l.21-.16C267.72,175.62,268.73,176.09,269.77,176.56Zm-3.15-2.6-.45-.23.26-.2.43.23Zm1.06-.89-.41-.22.62-.52.39.21Zm1.38-1.25-.37-.2c1.05-1,2.08-2,3.07-3l.43,0A42.47,42.47,0,0,1,269.06,171.82Zm4-4.34-.38,0c.52-.6,1-1.22,1.51-1.85l.29,0C274.05,166.26,273.57,166.89,273.09,167.48Zm2-2.91a43.29,43.29,0,0,0,4.35-7.48,44,44,0,0,1-4.11,7.45Z" style="fill:#DF8FBC"></path><path d="M283.53,157.2s-.93-.59-2.51-1.47c.14-.38.29-.77.42-1.16,1,.49,1.56.78,1.6.8a.46.46,0,0,0,.23.06.5.5,0,0,0,.24-.94s-.65-.34-1.75-.88c.37-1.15.71-2.33,1-3.55a.49.49,0,0,0-.76-.52l.24-1a.5.5,0,0,0-.39-.59.49.49,0,0,0-.59.38,42.42,42.42,0,0,1-1.22,4.5l-.51-.23a41.94,41.94,0,0,0,1.7-6.37.5.5,0,0,0-.4-.58.57.57,0,0,0-.26,0l.12-.33a.5.5,0,0,0-.3-.64.55.55,0,0,0-.38,0l.12-.27a.5.5,0,0,0-.92-.4c-1.06,2.44-2.16,4.76-3.31,7l-.29-.12a53,53,0,0,0,3.66-7.79.51.51,0,0,0-.3-.64.5.5,0,0,0-.64.3,52.57,52.57,0,0,1-3.65,7.76l-.73-.29a72.11,72.11,0,0,0,4.17-8.56.5.5,0,0,0-.27-.65.51.51,0,0,0-.66.27,72.45,72.45,0,0,1-4.18,8.58c-1-.39-2.12-.79-3.26-1.19a61.89,61.89,0,0,0,4.72-10.54.52.52,0,0,0-.32-.64.51.51,0,0,0-.63.32,62.18,62.18,0,0,1-4.73,10.53c-1-.34-2-.67-3.06-1a107.52,107.52,0,0,0,5-11.58.49.49,0,0,0-.3-.64.5.5,0,0,0-.64.3,104.69,104.69,0,0,1-5,11.62l-1.73-.51c2.13-3.67,4.3-7.46,6.45-11.25a.5.5,0,0,0-.19-.68.49.49,0,0,0-.68.19c-2.19,3.86-4.41,7.72-6.57,11.46l-1.11-.31c2.19-3.69,4.58-7.48,7.12-11.19a.49.49,0,0,0-.13-.69.5.5,0,0,0-.56,0,.52.52,0,0,0-.14-.22.48.48,0,0,0-.7,0A99.48,99.48,0,0,0,258,145.19c-2.21-.53-4.51-1-6.9-1.44a47.46,47.46,0,0,1,14.13-9.61.5.5,0,1,0-.4-.91,48.38,48.38,0,0,0-15,10.31l-.89-.14a47,47,0,0,1,13.81-9.92.49.49,0,0,0,.24-.66.5.5,0,0,0-.66-.24,47.62,47.62,0,0,0-14.59,10.64l-.68-.1a42.67,42.67,0,0,1,13.31-9.64.49.49,0,0,0,.24-.66.5.5,0,0,0-.67-.24A43.53,43.53,0,0,0,245.84,143l-.7-.08a33.12,33.12,0,0,1,12.52-9.3.5.5,0,1,0-.37-.93A34.41,34.41,0,0,0,244,142.75l-.94-.09a25.72,25.72,0,0,1,9.75-8.16.5.5,0,1,0-.4-.91c-3.83,1.64-7.5,4.88-10.51,9l-1.7-.13a.52.52,0,0,0-.53.47.5.5,0,0,0,0,.12.49.49,0,0,0-.42.46.5.5,0,0,0,.46.53l1.1.08c-.24.37-.48.74-.71,1.11-.18-.32-.37-.64-.54-.95a.5.5,0,1,0-.88.46.46.46,0,0,0-.2.05.49.49,0,0,0-.25.61l-.09,0a.49.49,0,0,0-.24.66c.25.56.51,1.11.78,1.66l-.25.47c-.14-.29-.29-.57-.43-.86a.5.5,0,0,0-.66-.24.5.5,0,0,0-.24.67c.26.54.52,1.06.78,1.58l-.12.26-.36-.71a.5.5,0,1,0-.9.43c.24.51.5,1,.75,1.49l-.21.49c-.05-.18-.11-.35-.16-.52a.5.5,0,0,0-1,.29c.17.56.37,1.13.57,1.7l-.09.28a.5.5,0,0,0-.95.28c.11.45.25.93.41,1.42-.26.92-.51,1.85-.7,2.78h0v.19a.05.05,0,0,0,0,0,.11.11,0,0,0,0,.08s0,0,0,.06l0,0,.06.07s0,0,0,0h0l.6.42c-.18.73-.35,1.47-.49,2.21a.5.5,0,0,0,.4.58H236a.49.49,0,0,0,.49-.4c.12-.61.26-1.2.4-1.8l.28.19q-.72,2.49-1.23,5.16a.5.5,0,0,0,.4.59h.09l.13,0h0l.13,0a.48.48,0,0,0,.3-.11c0,.17-.11.34-.16.51a.51.51,0,0,0,.34.62l.14,0a.49.49,0,0,0,.48-.36c.4-1.38.89-2.8,1.47-4.25a44.09,44.09,0,0,0,6.7,7.83c-1.4,3.8-2.06,6.18-2.08,6.25a.52.52,0,0,0,.35.62h.13a.53.53,0,0,0,.3-.09,0,0,0,0,1,0,0l.05.07a.46.46,0,0,0,.07.07l.05,0h0l0,0a.58.58,0,0,0,.19,0h0a.61.61,0,0,0,.26-.08h0s0,.07,0,.1a.28.28,0,0,0,0,.09.29.29,0,0,0,0,.09.41.41,0,0,0,0,.09s0,0,0,.05l0,0s0,0,0,0l.08.05.06,0a.65.65,0,0,0,.2,0h0a.39.39,0,0,0,.18,0l0,0,.08,0c.06-.05,1.74-1.42,4.28-3.84.4.29.81.58,1.23.85a46.24,46.24,0,0,1-4.8,3,.49.49,0,0,0-.2.67.5.5,0,0,0,.44.27.46.46,0,0,0,.23-.06.46.46,0,0,0,0,.2.48.48,0,0,0,.45.28l.16,0a.15.15,0,0,0,0,.09.49.49,0,0,0,.45.29.54.54,0,0,0,.21,0q3.06-1.41,5.73-2.94l.46.25q-2.31,1.33-4.93,2.59a.5.5,0,0,0,.22.95.59.59,0,0,0,.22-.05c2-.95,3.8-1.92,5.52-2.93l.34.17c-1.51.84-3.07,1.66-4.74,2.46a.5.5,0,0,0,.22.95.59.59,0,0,0,.22,0c1.89-.91,3.67-1.85,5.38-2.82l1,.48a34.33,34.33,0,0,1-4.95,2,.5.5,0,0,0-.33.62.49.49,0,0,0,.48.36l.14,0a35.59,35.59,0,0,0,5.86-2.41l.58.24a21.52,21.52,0,0,1-4.42,1.67.5.5,0,0,0-.37.6.5.5,0,0,0,.49.38h.11a23,23,0,0,0,5.43-2.17,44.53,44.53,0,0,0,4.92,1.44h.11a.51.51,0,0,0,.49-.39.49.49,0,0,0-.08-.39c.35.08.69.17,1,.24h.1a.5.5,0,0,0,.1-1,40.16,40.16,0,0,1-4.5-1.22l.59-.38a43,43,0,0,0,6,1.57h.09a.51.51,0,0,0,.5-.41.57.57,0,0,0,0-.26l.33.12a.47.47,0,0,0,.17,0,.52.52,0,0,0,.47-.33.55.55,0,0,0,0-.38l.27.12a.45.45,0,0,0,.2,0,.49.49,0,0,0,.45-.3.5.5,0,0,0-.25-.66c-1.62-.7-3.18-1.42-4.7-2.16l.21-.17a48.84,48.84,0,0,0,5.41,2.39l.18,0a.49.49,0,0,0,.46-.33.49.49,0,0,0-.29-.64,50.11,50.11,0,0,1-4.95-2.15l.61-.55c1.77.89,3.57,1.74,5.43,2.49a.43.43,0,0,0,.19,0,.5.5,0,0,0,.46-.31.49.49,0,0,0-.27-.65c-1.72-.7-3.39-1.48-5-2.3a44,44,0,0,0,3.57-3.84,58.14,58.14,0,0,0,7.69-1.24.5.5,0,0,0-.23-1,55.56,55.56,0,0,1-6.58,1.12q.71-.9,1.38-1.86a52.68,52.68,0,0,0,6.55-1.23.5.5,0,0,0-.25-1,54.78,54.78,0,0,1-5.54,1.1,45,45,0,0,0,4.06-7.71c1.47.83,2.3,1.35,2.34,1.37a.47.47,0,0,0,.27.08.48.48,0,0,0,.42-.23A.5.5,0,0,0,283.53,157.2Zm-15,10.49h-1.25c.59-.58,1.16-1.17,1.7-1.77h1.33C269.74,166.5,269.14,167.1,268.52,167.69ZM248,166.64l.47.49c-.16.32-.31.64-.46,1l-.42-.41Zm17.41-.81c-.56.56-1.13,1.12-1.72,1.66-.34,0-.67-.06-1-.1.55-.54,1.11-1.08,1.65-1.64Zm.45,1.8-.8,0c.59-.56,1.16-1.13,1.72-1.71h.83C267.06,166.48,266.48,167.06,265.87,167.63Zm-16.64.25,0,0-.19.32C249.12,168.11,249.17,168,249.23,167.88Zm.42-.89.44-.9.16.15q-.25.44-.51.84Zm-10.47-8.48.09.18-.14-.06Zm.49-1.16c.16-.37.34-.75.52-1.14.06.11.13.21.2.32-.2.38-.37.75-.56,1.12Zm1-2.2.21-.4.24.39c-.08.13-.15.26-.22.39Zm.75-1.43.25-.46.27.45c-.08.14-.18.29-.26.44Zm1.44-2.49.35.46,0,.05-.34-.48Zm-.58,1c.1.16.2.31.31.46a.56.56,0,0,1-.05.08l-.3-.48A.21.21,0,0,1,242.31,152.19Zm8.63,9.92c-.07.14-.14.27-.2.41l-.75-.2-.1-.11c.11-.26.23-.52.35-.78Zm3.1,2.8-.49.7c-.39-.33-.78-.66-1.16-1l.34-.57.38.08Zm-3,0-.33-.11a1.86,1.86,0,0,0,.1-.2l.27.24Zm.35-1.17.3.07a.57.57,0,0,1-.08.13Zm-1.34.14-.28.56-.6-.61c.08-.19.17-.38.25-.58Zm5.9,3.43c.45.1.89.21,1.35.3l1,.76-.54.49q-1-.69-2-1.41Zm4.1.78.4.06-.34.3-.24-.17Zm-.92.88.23.16-.51.44a1.64,1.64,0,0,1-.22-.14C258.81,169.24,259,169.09,259.15,168.94Zm1.06.76.48.33-.48.37-.47-.29ZM261,169l.55-.5.58.39-.57.48Zm-3.22-2.37-.69-.54.41-.46c.56.43,1.14.85,1.72,1.27Q258.45,166.79,257.74,166.64Zm-3.18-.73.24-.35.72.6Zm-5.42-4.47a52.59,52.59,0,0,1-6-7.75l.11-.19a70,70,0,0,0,6.22,7.17Zm-6.57-6.79a54.15,54.15,0,0,0,5.5,7.13l-1-.3a56.39,56.39,0,0,1-4.74-6.39Zm5.91,8.29a.3.3,0,0,0,0,.08l-.13-.13Zm4.44,3.55-.34.47-1-.86Zm.81.58.61.49-.44.47-.55-.43Zm1.41,1.1c.62.47,1.25.92,1.89,1.36l-.5.42c-.62-.41-1.23-.85-1.84-1.3Zm2.73,1.93.18.12-.49.42-.17-.11Zm1.05.69.44.27c-.17.13-.36.25-.53.37l-.39-.24Zm1.36.84.47.28-.5.35-.46-.27Zm.87-.66.44-.35.46.3-.44.33Zm1.25-1,.58-.49.49.3-.61.5Zm1.37-1.17.31-.28c.26,0,.51.05.77.06l-.58.52Zm-2.35-1.54h0l-.3-.2c.47-.46.93-.94,1.39-1.43l.52.06C262.49,166.2,262,166.73,261.42,167.25Zm-1.15-.78c-.64-.45-1.25-.91-1.87-1.37.94.15,1.89.27,2.86.38C260.93,165.82,260.6,166.14,260.27,166.47ZM256.66,165l-.4.45-.89-.74.1-.14.84.15Zm-3.09-1.83-.22-.21.27-.45c.34.29.67.59,1,.88Zm-1-.91-.43-.4.21-.42.47.4C252.76,162,252.68,162.15,252.6,162.29Zm-1.19-1.1c-.25-.24-.48-.49-.73-.73l.19-.39.75.7C251.55,160.91,251.48,161,251.41,161.19Zm-1.47-1.48a68.13,68.13,0,0,1-6.11-7.11l.06-.08a70.08,70.08,0,0,0,6.22,6.83C250.05,159.47,250,159.59,249.94,159.71Zm.62-1.31a69.87,69.87,0,0,1-6.08-6.75,50.83,50.83,0,0,1,5.11-6.38c2.5.48,4.93,1,7.26,1.69A119.93,119.93,0,0,0,250.56,158.4Zm-6.73-7.58-.37-.48a48.37,48.37,0,0,1,4.1-5.43l.86.14A54.22,54.22,0,0,0,243.83,150.82Zm-1-1.36-.25-.35a39.68,39.68,0,0,1,3.17-4.48l.65.09A48.6,48.6,0,0,0,242.83,149.46Zm-1.72,2.81-.26.45-.11-.19c.07-.17.15-.34.23-.5C241,152.11,241.06,152.19,241.11,152.27Zm-.81,1.48c-.07.12-.13.24-.19.36,0,0,0-.07-.05-.1s.11-.25.17-.38Zm.14,4.94c.18-.38.36-.77.56-1.16q.8,1.28,1.62,2.46c-.64-.23-1.24-.46-1.81-.69C240.68,159.1,240.56,158.9,240.44,158.69Zm1.09-2.17c.07-.14.15-.28.23-.42a58.6,58.6,0,0,0,3.51,4.81l-1.09-.37C243.27,159.28,242.39,157.93,241.53,156.52Zm4.94,5.82,1.14,1.28c-.55-.23-1.09-.45-1.61-.68-.26-.32-.51-.66-.77-1Zm1.24,2.39-.06.16c-.09-.09-.17-.19-.25-.28Zm.94.35.63.24.05.05-.42.86-.51-.54Zm-.31,6.28.58.46c-1.57,2-2.72,3.34-3.21,3.91Zm.52-.85.13-.23.69.57-.15.19C249.3,170.87,249.08,170.69,248.86,170.51Zm.65-1.09c.16-.27.33-.54.49-.82.27.25.54.51.82.75l-.54.71C250,169.85,249.76,169.64,249.51,169.42Zm1-1.64.51-.85,1,.85-.61.82C251.08,168.34,250.79,168.06,250.49,167.78Zm2.27.63.43.35c-.24.26-.49.51-.72.75l-.33-.26Zm1.23,1c.58.43,1.16.85,1.74,1.25l-.84.71c-.56-.39-1.11-.78-1.65-1.2C253.49,169.9,253.74,169.64,254,169.38Zm2.6,1.83.15.09c-.3.24-.61.46-.91.69l-.1-.06Zm1,.66.3.19c-.32.21-.61.43-.94.64l-.25-.15C257,172.32,257.34,172.11,257.63,171.87Zm1.26.76.46.27-.93.62-.48-.24Zm1.43.81c.17.09.33.19.5.27l-.9.58c-.16-.07-.32-.16-.48-.24Zm.91-.65.45-.33.55.31-.46.3Zm1.33-1,.37-.3.58.35-.36.27Zm1.2-1,.61-.52.65.4-.64.48Zm1.41-1.2c.38-.33.75-.67,1.11-1l1.2,0c-.52.47-1.08.93-1.64,1.38C265.61,169.92,265.4,169.78,265.17,169.64Zm4.71-4.74a50,50,0,0,0,6.88-10.28l.75.38a37.07,37.07,0,0,1-6.24,9.86Zm7.33-11.17.43-.9.64.28c-.12.33-.24.65-.37,1Zm-.9-.45-.4-.19c.15-.27.3-.54.44-.81l.37.15C276.58,152.72,276.45,153,276.31,153.28Zm-.45.9a49.33,49.33,0,0,1-7.33,10.73h-.84A60,60,0,0,0,275.43,154Zm-9.53,10.69-1.12-.05a75.88,75.88,0,0,0,8.91-11.48l.39.19A57.34,57.34,0,0,1,266.33,164.87Zm-2.39-.13-.58-.05a79.38,79.38,0,0,0,9.15-12.08l.7.32A75.84,75.84,0,0,1,263.94,164.74Zm-1.83-.16c-1.14-.12-2.25-.26-3.35-.42a98.18,98.18,0,0,0,9.69-13.28c1.1.44,2.15.89,3.14,1.32A79.21,79.21,0,0,1,262.11,164.58ZM257.6,164l-.85-.14-.49-.39a145.62,145.62,0,0,0,8.38-14c1,.36,1.95.72,2.87,1.08A97.59,97.59,0,0,1,257.6,164Zm-2.12-1.16c-.46-.37-.9-.76-1.35-1.14,2.33-3.94,5-8.44,7.75-13.19.61.2,1.22.4,1.81.61A141.23,141.23,0,0,1,255.48,162.81ZM253.36,161l-.51-.44c2-3.88,4.32-8.22,7-12.74l1.1.34C258.22,152.79,255.64,157.16,253.36,161Zm-1.27-1.15-.77-.73a119.84,119.84,0,0,1,6.53-11.88l1,.28C256.28,151.89,254,156.08,252.09,159.85Zm6.32-13.49,0,0,.95.24,0,.06Zm-13.82-1.89a38.23,38.23,0,0,0-2.64,3.75l-.33-.52a39.74,39.74,0,0,1,2.29-3.31ZM240.38,151l-.25.47-.3-.54.24-.48Zm-.77,1.58-.15.34-.32-.56c.06-.11.1-.23.15-.34C239.4,152.2,239.5,152.39,239.61,152.57Zm-.67,1.47c-.14.35-.27.72-.41,1.07-.09-.21-.18-.41-.28-.62.13-.33.27-.65.4-1Zm-.9,2.35c-.08.2-.14.41-.2.61-.09-.19-.19-.38-.27-.57s.14-.39.21-.59C237.86,156,238,156.21,238,156.39Zm3.7,4.34,1.89.68c.16.23.33.44.5.66-.79-.38-1.55-.77-2.26-1.15Zm3.75,3.08c.58.7,1.17,1.38,1.76,2-.14.37-.28.72-.42,1.07a44.53,44.53,0,0,1-3.66-4.2C243.91,163.08,244.68,163.45,245.49,163.81Zm1.72,4.87.37.34c-.05.1-.09.2-.14.29l-.35-.31Zm3.25,2.79h0l-.08.08Zm.6-.79.53-.69.22.18-.62.61Zm1.52.13c.51.39,1,.76,1.53,1.13l-.64.5c-.5-.34-1-.69-1.48-1.05Zm2.38,1.73.08.06-.63.45-.06,0Zm-1.44,1.13-.09.05a.24.24,0,0,0,.08-.06Zm.82.65.1-.07,0,0-.1.06Zm1-.69.61-.47.16.1-.68.42Zm1.74.22c.15.09.29.19.44.27l-.63.4-.46-.26Zm1.47.8.42.23c-.21.12-.42.26-.64.38l-.42-.2Zm1.45.75,1.21.52-.64.38-1.19-.53Zm1-.62c.29-.18.55-.37.82-.56l1.18.59c-.25.17-.51.33-.77.49C261.8,175.14,261.39,175,261,174.78Zm3,.51.53.24c-.2.15-.4.28-.6.42l-.59-.21Zm1-.67.3-.21.47.23-.26.21Zm-1-.47-1.19-.57c.14-.1.29-.19.42-.29l1.12.6Zm.13-1.52.33-.25,1.07.64-.27.21C264.82,173,264.44,172.84,264.07,172.63Zm1.19-.9.65-.5,1,.58-.64.53Zm1.47-1.19c.73-.6,1.43-1.22,2.1-1.85l1.5,0c-.84.87-1.69,1.69-2.57,2.46C267.42,170.93,267.07,170.74,266.73,170.54Zm3.18-2.88c.6-.59,1.16-1.2,1.72-1.82l1.24-.07c-.51.63-1,1.24-1.57,1.84Zm2.62-2.87a38.62,38.62,0,0,0,5.84-9.34l.54.28a42.33,42.33,0,0,1-5.2,9Zm7.15-11c-.13.35-.26.71-.4,1.06l-.51-.27c.14-.34.28-.68.41-1Zm-1.07-1.58-.55-.24c.69-1.54,1.31-3.08,1.89-4.62A41.28,41.28,0,0,1,278.61,152.16Zm.55-5.62c-.61,1.66-1.28,3.33-2,5l-.32-.13C277.63,149.83,278.4,148.21,279.16,146.54Zm-3.74,5.35c-.13.26-.28.51-.42.77l-.37-.18c.15-.24.3-.48.44-.73Zm-1.28-.51-.42.68-.69-.31.4-.65Zm-1.66-.64-.36.6c-1-.44-2.05-.88-3.15-1.33l.27-.45C270.38,150,271.46,150.35,272.48,150.74Zm-4.21-1.51-.24.41c-.95-.37-1.92-.74-2.93-1.1l.15-.3C266.3,148.57,267.3,148.9,268.27,149.23Zm-4-1.29c0,.09-.08.17-.13.26-.57-.21-1.16-.41-1.76-.6l.1-.18Zm-2.78-.8-.08.14-1.09-.35.05-.1Zm4.41-11c-2.13,3.2-4.13,6.42-6,9.58l-.9-.23A99.8,99.8,0,0,1,265.91,136.1Zm-24,8.07.85.09q-.92,1.23-1.74,2.52c-.12-.2-.26-.4-.39-.6C241.05,145.49,241.48,144.82,241.92,144.17Zm-2.71,4.63c.1.19.2.38.29.57l-.24.47c-.1-.18-.19-.36-.28-.54Zm-.76,1.64c.08.17.17.34.26.5s-.1.19-.14.29c-.09-.16-.17-.33-.25-.49S238.4,150.54,238.45,150.44Zm-.63,1.52c.07.15.14.3.22.44-.11.26-.23.52-.33.79l-.18-.44C237.63,152.48,237.72,152.22,237.82,152Zm-.64,2.57-.18.5c0-.1-.08-.21-.11-.32s.09-.34.15-.51C237.08,154.31,237.13,154.42,237.18,154.53Zm-.67,2c-.09.29-.17.58-.25.87l0,0c.07-.34.15-.68.24-1Zm1.14,6.3c.23-.77.51-1.61.84-2.51,0,0,0,.09.08.14C238.24,161.22,237.93,162,237.65,162.79Zm2.57-1.64c.31.18.64.35,1,.53a45.16,45.16,0,0,0,5.24,6.24c0,.12-.09.24-.13.35A42.23,42.23,0,0,1,240.22,161.15Zm6.79,9.1c-.65,1.4-1.18,2.57-1.57,3.46.31-1,.73-2.21,1.28-3.72Zm4.12,2,.14-.14c.45.33.9.65,1.37,1l-.15.1C252,172.87,251.57,172.56,251.13,172.24Zm4.24,2.67.08-.06.45.26-.08,0Zm1.5.79.05,0,.38.2,0,0Zm1.49.69.85.4-.87-.38Zm4,.61-.6-.23.6-.36c.2.08.4.14.6.21Zm2.78-.65.49-.36c1.14.48,2.27.93,3.41,1.36C267.68,177.07,266.37,176.74,265.11,176.35Zm4.66.21c-1.08-.39-2.17-.82-3.25-1.27l.21-.16C267.72,175.62,268.73,176.09,269.77,176.56Zm-3.15-2.6-.45-.23.26-.2.43.23Zm1.06-.89-.41-.22.62-.52.39.21Zm1.38-1.25-.37-.2c1.05-1,2.08-2,3.07-3l.43,0A42.47,42.47,0,0,1,269.06,171.82Zm4-4.34-.38,0c.52-.6,1-1.22,1.51-1.85l.29,0C274.05,166.26,273.57,166.89,273.09,167.48Zm2-2.91a43.29,43.29,0,0,0,4.35-7.48,44,44,0,0,1-4.11,7.45Z" style="opacity:0.30000000000000004"></path></g><g id="freepik--Cat--inject-63"><path d="M217.91,218.83c2.05-5.18,6.3-13.93,13.11-19.16.65-.5,1.84.46,1.67,1.36-1.31,7.06.61,17.26,1.39,20.88.16.76-.25,1.34-.93,1.33L221,223.09C219.06,223.07,217.22,220.57,217.91,218.83Z" style="fill:#DF8FBC"></path><path d="M217.91,218.83c2.05-5.18,6.3-13.93,13.11-19.16.65-.5,1.84.46,1.67,1.36-1.31,7.06.61,17.26,1.39,20.88.16.76-.25,1.34-.93,1.33L221,223.09C219.06,223.07,217.22,220.57,217.91,218.83Z" style="opacity:0.30000000000000004"></path><path d="M231.73,253.42c10-4.4,16.93-8.23,17.56-12.43s.26-10.55-.54-11.8a6.75,6.75,0,0,0,1,.47A8.15,8.15,0,0,0,246,225a36.72,36.72,0,0,1-8.29-6.5c-3-3.16-8.82-6.32-15-4.89s-20.92,5.19-23.43,16.15,1.55,18,5.37,21.7S219.45,258.81,231.73,253.42Z" style="fill:#DF8FBC"></path><path d="M200.3,235.14c-1.72-5.58-4.15-15.81-3-26.41.11-1,1.38-1.62,1.79-.85,3.24,6,10.23,10.77,12.77,12.34a1.36,1.36,0,0,1,.2,1.86l-7.43,12.6C203.42,236.73,200.87,237,200.3,235.14Z" style="fill:#DF8FBC"></path><path d="M200.3,235.14c-1.72-5.58-4.15-15.81-3-26.41.11-1,1.38-1.62,1.79-.85,3.24,6,10.23,10.77,12.77,12.34a1.36,1.36,0,0,1,.2,1.86l-7.43,12.6C203.42,236.73,200.87,237,200.3,235.14Z" style="opacity:0.30000000000000004"></path><path d="M253.46,388.41c10.64,5.24,20.65,14.66,49.24,14.56,19.74-.06,38-11.26,41.94-8.93s-9.29,12.25-27.72,15.93c-23.57,4.7-49.48,1.93-57.11-1.75S239,404.46,239,404.46Z" style="fill:#DF8FBC"></path><path d="M253.46,388.41c10.64,5.24,20.65,14.66,49.24,14.56,19.74-.06,38-11.26,41.94-8.93s-9.29,12.25-27.72,15.93c-23.57,4.7-49.48,1.93-57.11-1.75S239,404.46,239,404.46Z" style="opacity:0.30000000000000004"></path><path d="M246.69,242c1.12,2,6.26,3.67,7.87,7.07s8.14,26.55,7.51,32.54-3,27.07-.53,34.46,5,20,4.65,29.09,8.82,37.43,7.63,46.49,6.91,13.36,6.55,19.44-11.45,5.12-15.44,5.12-10.55-2.62-10.31-6.61a12.14,12.14,0,0,0-2.38-7.34s-6,9.3-20.63,9.3H203.36c-4.06,0-8.35-7.86,5.24-9.89-8.82-4.29-18.24-12.16-12.87-23.61s8.46-20.86,7.63-25.51-1.08-13.35,1.67-18.72,8.22-18.24,4.41-24.79-3-38.75-2.63-46.38-2.47-10.28-3.42-11.48a18.6,18.6,0,0,0,.56,2.95s-5.42-7.83-3.63-12.51S246.69,242,246.69,242Z" style="fill:#DF8FBC"></path><path d="M258.14,276.52c1.7,3.69,1.58,8.46,4,4.65s9.39-16.87,11.18-19.38,7.75-10.43,9.6-14.72,5-23.38,6.51-26.56,5.17-4.14,3.86-8.73-6.26-9.3-11.39-6.62-5.66,11.15-7.33,15.74-4,14.29-5.66,15.49-10.61,4.36-13.59,4.12-8.53-2.74-8.83.66S255.69,271.21,258.14,276.52Z" style="fill:#DF8FBC"></path><path d="M292.07,210.37c2.06-2,4.83-2.37,5.81,0s-5.81,6-5.81,6Z" style="fill:#DF8FBC"></path><path d="M288.27,207.17c1.16-3,6.46-6.4,8.72-3.68,1.79,2.17-4.72,7.9-4.72,7.9Z" style="fill:#DF8FBC"></path><path d="M285.38,205c0-3.25,3.78-8.27,6.86-6.52,2.44,1.4-1.63,9-1.63,9Z" style="fill:#DF8FBC"></path><path d="M280,207.24c-1.26-3.85.28-9.87,3.81-9.87,3.35,0,3,8.94,3,8.94Z" style="fill:#DF8FBC"></path><path d="M276.87,214.54c-2.17-2.85-2.64-8.31.31-9.34,2.79-1,5.06,6.6,5.06,6.6Z" style="fill:#DF8FBC"></path><path d="M222.78,308.47c-.72,3.33.25,7.2-2.39,4.52s-8.59-15.69-13.19-14.55c-4,1-7.12-4.87-10-9.52-2.06-3.32-8.34-18.2-10.16-20.51s-5-2.45-4.75-6.44,3.16-13.3,7.75-11.74,7.78,8.12,9.75,11.7,4.15,3.36,8.81,2.19a33.47,33.47,0,0,0,9.59-4c2-1.49,5.56-1.79,7.28.49S223.81,303.69,222.78,308.47Z" style="fill:#DF8FBC"></path><path d="M183.91,260.43c-2.08-2-5-3.78-5.19-1.22-.3,3.69,6.86,7.58,6.86,7.58Z" style="fill:#DF8FBC"></path><path d="M187.81,257.08c-1.79-2.71-7.69-4.84-9.3-1.69-1.29,2.51,6.32,6.68,6.32,6.68Z" style="fill:#DF8FBC"></path><path d="M189.4,254.34c-.72-3.18-5.49-7.25-8.11-4.87-2.08,1.89,3.56,8.48,3.56,8.48Z" style="fill:#DF8FBC"></path><path d="M193.19,256.11c.39-4-2.42-9.56-5.87-8.79-3.27.72-.93,9.36-.93,9.36Z" style="fill:#DF8FBC"></path><path d="M196.62,260.3c1.49-3.24.76-8.68-2.34-9-2.94-.34-3.5,7.54-3.5,7.54Z" style="fill:#DF8FBC"></path><path d="M290.59,212.93c.83-3-.74-5.3-3.6-6.44-3.08-1.23-6.48.6-6,2.48.47,1.7,2.55,1.45,4.12,2.39C286.25,212,288.82,219.36,290.59,212.93Z" style="fill:#fafafa;opacity:0.7000000000000001"></path><path d="M295.72,210.5c.15-1.38-1.7-1.28-2.64-.42s-1,2.36.24,2.09S295.6,211.6,295.72,210.5Z" style="fill:#fafafa;opacity:0.7000000000000001"></path><path d="M277.68,207.35c.8-.91,1.83.35,1.82,1.46s-.94,2-1.49,1.08S277,208.08,277.68,207.35Z" style="fill:#fafafa;opacity:0.7000000000000001"></path><path d="M294.38,205.28c0-1.5-2-1.14-2.89-.08s-.73,2.66.53,2.21S294.41,206.49,294.38,205.28Z" style="fill:#fafafa;opacity:0.7000000000000001"></path><path d="M283.5,200.5c-1.33-.69-2,1.22-1.45,2.5s2,1.92,2.2.59S284.57,201.05,283.5,200.5Z" style="fill:#fafafa;opacity:0.7000000000000001"></path><path d="M290.75,200.71c-.83-1.54-2.69-.12-3.05,1.45s.66,3.15,1.73,2S291.41,202,290.75,200.71Z" style="fill:#fafafa;opacity:0.7000000000000001"></path><path d="M185.56,262.11a4.67,4.67,0,0,1,2.38-6.3c2.59-1.35,5.84.17,5.62,2-.2,1.63-2.08,1.53-3.36,2.51C189.3,261,188,268.08,185.56,262.11Z" style="fill:#fafafa;opacity:0.7000000000000001"></path><path d="M180.67,259.93c-.15-1.21,1.48-1.16,2.31-.41s.9,2.05-.17,1.83S180.79,260.9,180.67,259.93Z" style="fill:#fafafa;opacity:0.7000000000000001"></path><path d="M194.91,253.29c-1.19-.67-1.69.67-1.21,1.67s1.81,1.65,2,.69S195.87,253.82,194.91,253.29Z" style="fill:#fafafa;opacity:0.7000000000000001"></path><path d="M181.21,255.59c-.11-1.31,1.66-1.18,2.53-.33s.88,2.26-.27,2S181.3,256.65,181.21,255.59Z" style="fill:#fafafa;opacity:0.7000000000000001"></path><path d="M188.55,249.1c.89-1,2,.41,2,1.62s-1.06,2.19-1.63,1.15S187.84,249.88,188.55,249.1Z" style="fill:#fafafa;opacity:0.7000000000000001"></path><path d="M183.72,250.89c.58-1.42,2.34-.34,2.79,1s-.29,2.81-1.33,1.91S183.25,252,183.72,250.89Z" style="fill:#fafafa;opacity:0.7000000000000001"></path><path d="M217.21,317.47A59.65,59.65,0,0,1,220,294.34c3-9.42-3.55-22.21,10.2-27.55,12.16-4.72,19,26.29,14.87,36s-4,28.27-2.26,36.27,4.39,16.44,3.83,26.54-1.55,18.76-3.9,26.63-9.76,9.64-12.64,6.26c-4.41-5.19-13.73-21.64-9.24-36.67C225.28,347.12,217.73,325.37,217.21,317.47Z" style="fill:#fafafa;opacity:0.2"></path><path d="M215.92,233.48c-8.85,2.58-1.82-12.56,5.47-13.11S241.05,226.14,215.92,233.48Z" style="opacity:0.1"></path><path d="M222.18,227.17c-.44-2.13.26-4.82,3.36-4.77C226.56,222.41,230.13,227.47,222.18,227.17Z" style="opacity:0.30000000000000004"></path><path d="M237.44,222.52c-.82-1.72-.8-3.6,1.77-2.93C240.05,219.82,244,224.38,237.44,222.52Z" style="fill:#DF8FBC"></path><path d="M237.44,222.52c-.82-1.72-.8-3.6,1.77-2.93C240.05,219.82,244,224.38,237.44,222.52Z" style="opacity:0.30000000000000004"></path><path d="M238.88,224.15c-2.06,0-3.13.36-3.24,1.61s3,2,3.63,1.29S240.79,224.18,238.88,224.15Z" style="fill:#fafafa;opacity:0.7000000000000001"></path></g></svg>